<svg xmlns="http://www.w3.org/2000/svg" viewBox="456 256 48 48" enable-background="new 456 256 48 48"><linearGradient id="a" gradientUnits="userSpaceOnUse" x1="351.366" y1="312.875" x2="351.366" y2="301.375" gradientTransform="matrix(4.167 0 0 -4.167 -983.994 1559.654)"><stop offset="0" stop-color="#40C5EA"/><stop offset="1" stop-color="#2598D9"/></linearGradient><path fill="url(#a)" d="M504 297.928c0 3.307-2.683 5.989-5.989 5.989h-35.938c-3.308 0-5.99-2.683-5.99-5.989v-35.938c0-3.307 2.682-5.99 5.99-5.99h35.938c3.307 0 5.989 2.683 5.989 5.99v35.938z"/><path fill="#2598D9" d="M498.282 279.634v.744l-.032.209c-.042.615-.156 1.217-.364 1.797-.653 1.82-1.852 3.088-3.76 3.573-1.839.467-3.541.079-5.108-.961-.963-.635-1.757-1.452-2.522-2.303l-.243-.274-.077.123c-.625.628-1.224 1.287-1.884 1.877-1.355 1.211-2.935 1.862-4.78 1.708-2.201-.187-3.793-1.266-4.73-3.281l-.078-.159-.033.04-.077.159c-.825 1.636-2.109 2.729-3.89 3.168-1.709.422-3.392.245-4.979-.52-1.41-.68-2.334-1.792-2.687-3.34-.085-.369-.109-.752-.162-1.142h3.372l.026.164.028.153c.136.679.455 1.249 1.025 1.654 1.358.968 3.254.518 4.058-.973.546-1.013.59-2.072.163-3.136-.323-.804-.912-1.368-1.759-1.566-1.379-.32-2.44.01-3.225 1.057-.088.117-.178.163-.325.162-.861-.008-1.722-.004-2.583-.004h-.234l1.626-9.122h9.214v2.749h-.251c-2.12 0-4.241.001-6.362-.003-.138 0-.2.026-.227.182-.194 1.145-.401 2.287-.601 3.43l-.014.227c1.245-1.258 2.729-1.495 4.327-1.207 1.645.298 2.778 1.289 3.506 2.806l.085-.205c.875-2.046 2.435-3.152 4.639-3.347 1.747-.155 3.253.444 4.599 1.518.816.652 1.49 1.441 2.17 2.224l.146.162.256-.302c.74-.861 1.479-1.722 2.416-2.386 1.501-1.064 3.154-1.495 4.966-1.109 2.279.488 3.606 1.971 4.167 4.182.104.414.133.848.198 1.272zm-10.033.535c.562.767 1.71 1.749 2.521 2.169.516.265 1.054.444 1.635.492 1.173.097 2.098-.41 2.532-1.437.351-.831.364-1.684.005-2.513-.432-.995-1.204-1.526-2.304-1.552-.634-.015-1.205.18-1.747.491-1.043.597-1.825 1.486-2.642 2.35zm-3.943.01c-.89-.933-1.776-1.845-2.93-2.432-.261-.131-.536-.246-.816-.322-1.212-.326-2.237.126-2.831 1.232-.412.768-.479 1.579-.247 2.409.283 1.01 1.054 1.638 2.098 1.748.627.068 1.219-.052 1.792-.3 1.18-.509 2.085-1.363 2.934-2.335z"/><path fill="#fff" d="M498.282 281.327v.746l-.032.208c-.042.615-.156 1.216-.364 1.796-.653 1.821-1.852 3.09-3.76 3.573-1.839.467-3.541.079-5.108-.959-.963-.637-1.757-1.454-2.522-2.305l-.243-.273-.077.122c-.625.629-1.224 1.287-1.884 1.878-1.355 1.21-2.935 1.861-4.78 1.707-2.201-.187-3.793-1.265-4.73-3.281l-.078-.159-.033.039-.077.16c-.825 1.635-2.109 2.73-3.89 3.168-1.709.421-3.392.247-4.979-.52-1.41-.679-2.334-1.792-2.687-3.338-.085-.37-.109-.754-.162-1.143h3.372l.026.163.028.153c.136.679.455 1.248 1.025 1.655 1.358.967 3.254.517 4.058-.974.546-1.013.59-2.072.163-3.136-.323-.804-.912-1.368-1.759-1.566-1.379-.32-2.44.011-3.225 1.057-.088.116-.178.162-.325.161-.861-.008-1.722-.005-2.583-.005h-.234l1.626-9.121h9.214v2.749h-.251c-2.12 0-4.241.001-6.362-.003-.138 0-.2.026-.227.182-.194 1.145-.401 2.287-.601 3.43l-.014.228c1.245-1.259 2.729-1.495 4.327-1.208 1.645.297 2.778 1.289 3.506 2.807l.085-.206c.875-2.046 2.435-3.152 4.639-3.347 1.747-.155 3.253.444 4.599 1.519.816.652 1.49 1.44 2.17 2.224l.146.162.256-.302c.74-.861 1.479-1.722 2.416-2.386 1.501-1.064 3.154-1.497 4.966-1.109 2.279.488 3.606 1.97 4.167 4.183.104.415.133.847.198 1.271zm-10.033.537c.562.765 1.71 1.747 2.521 2.167.516.267 1.054.443 1.635.492 1.173.098 2.098-.409 2.532-1.437.351-.831.364-1.683.005-2.512-.432-.997-1.204-1.526-2.304-1.553-.634-.015-1.205.18-1.747.491-1.043.598-1.825 1.486-2.642 2.352zm-3.943.009c-.89-.932-1.776-1.845-2.93-2.432-.261-.132-.536-.247-.816-.322-1.212-.326-2.237.126-2.831 1.232-.412.767-.479 1.578-.247 2.409.283 1.009 1.054 1.638 2.098 1.749.627.067 1.219-.052 1.792-.301 1.18-.51 2.085-1.363 2.934-2.335z"/></svg>