<svg xmlns="http://www.w3.org/2000/svg" viewBox="456 256 48 48" enable-background="new 456 256 48 48"><linearGradient id="a" gradientUnits="userSpaceOnUse" x1="351.366" y1="312.875" x2="351.366" y2="301.375" gradientTransform="matrix(4.167 0 0 -4.167 -983.994 1559.654)"><stop offset="0" stop-color="#082F3C"/><stop offset="1" stop-color="#04242E"/></linearGradient><path fill="url(#a)" d="M504 297.928c0 3.307-2.683 5.989-5.989 5.989h-35.938c-3.308 0-5.99-2.683-5.99-5.989v-35.938c0-3.307 2.682-5.99 5.99-5.99h35.938c3.307 0 5.989 2.683 5.989 5.99v35.938z"/><path fill-rule="evenodd" clip-rule="evenodd" fill="#03191E" d="M466.752 274.061c1.03-.476 1.952-1.021 2.946-1.333 1.668-.524 3.078.008 4.113 1.417.336.458.521.403.918.025 1.398-1.325 3.034-1.956 4.981-1.419 1.338.37 2.175 1.325 2.197 2.73.05 3.108.039 6.218.009 9.326-.003.193-.363.533-.578.552-1.929.166-1.93.149-1.928-1.802 0-1.97.006-3.939-.002-5.909-.006-1.448-.527-2.357-1.466-2.609-1.138-.305-2.915.399-3.455 1.428-.162.307-.194.708-.198 1.066-.017 2.277-.032 4.556.003 6.832.011.74-.189 1.04-.982 1.027-1.661-.029-1.662.009-1.662-1.643 0-2.124.003-4.248-.002-6.372-.004-1.531-.74-2.382-2.048-2.389-1.654-.009-2.935 1.072-2.939 2.495-.006 2.309-.026 4.618.01 6.925.012.708-.185.98-.927.981-1.813.003-1.813.035-1.813-1.778 0-3.263.021-6.526-.02-9.788-.01-.752.236-1.02.949-.914h.092c.853.041 1.983-.371 1.802 1.152z"/><path fill-rule="evenodd" clip-rule="evenodd" fill="#03191E" d="M491.8 280.083c-1.293 0-2.585-.007-3.877.002-.979.007-1.133.265-.726 1.175.799 1.788 2.821 2.76 4.763 2.219.669-.187 1.331-.488 1.913-.865.541-.354.783-.215 1.1.257.77 1.149.778 1.24-.441 1.924-2.871 1.613-7.757 1.431-9.627-2.232-1.926-3.778-.419-9.347 4.872-9.974 3.228-.383 6.05 1.763 6.566 4.984l.124.914c.213 1.597.213 1.598-1.437 1.599l-3.23-.003zm-1.437-1.914c.89 0 1.778.011 2.668-.003.869-.014 1.021-.241.76-1.071-.461-1.462-1.9-2.396-3.579-2.324-1.493.064-2.838 1.177-3.21 2.588-.155.589.04.808.603.808l2.758.002z"/><path fill-rule="evenodd" clip-rule="evenodd" fill="#FFCB33" d="M466.752 276.108c1.03-.476 1.952-1.021 2.946-1.332 1.668-.524 3.078.008 4.113 1.417.336.458.521.403.918.026 1.398-1.326 3.034-1.956 4.981-1.419 1.338.37 2.175 1.325 2.197 2.73.05 3.108.039 6.218.009 9.326-.003.193-.363.533-.578.552-1.929.166-1.93.149-1.928-1.802 0-1.97.006-3.939-.002-5.909-.006-1.448-.527-2.357-1.466-2.609-1.138-.305-2.915.399-3.455 1.428-.162.307-.194.708-.198 1.067-.017 2.277-.032 4.555.003 6.833.011.739-.189 1.039-.982 1.026-1.661-.029-1.662.009-1.662-1.643 0-2.124.003-4.248-.002-6.372-.004-1.531-.74-2.382-2.048-2.389-1.654-.008-2.935 1.072-2.939 2.495-.006 2.309-.026 4.618.01 6.926.012.707-.185.98-.927.981-1.813.002-1.813.034-1.813-1.779 0-3.263.021-6.525-.02-9.788-.01-.752.236-1.02.949-.914h.092c.853.038 1.983-.374 1.802 1.149z"/><path fill-rule="evenodd" clip-rule="evenodd" fill="#FFCB33" d="M491.8 282.13c-1.293 0-2.585-.007-3.877.002-.979.007-1.133.265-.726 1.174.799 1.79 2.821 2.761 4.763 2.221.669-.188 1.331-.489 1.913-.866.541-.354.783-.215 1.1.257.77 1.149.778 1.24-.441 1.925-2.871 1.613-7.757 1.43-9.627-2.233-1.926-3.778-.419-9.347 4.872-9.974 3.228-.383 6.05 1.763 6.566 4.984l.124.913c.213 1.598.213 1.599-1.437 1.6l-3.23-.003zm-1.437-1.914c.89 0 1.778.011 2.668-.003.869-.014 1.021-.241.76-1.071-.461-1.462-1.9-2.396-3.579-2.323-1.493.064-2.838 1.176-3.21 2.588-.155.589.04.808.603.808.919-.002 1.839-.001 2.758.001z"/></svg>