<svg xmlns="http://www.w3.org/2000/svg" viewBox="456 256 48 48" enable-background="new 456 256 48 48"><linearGradient id="a" gradientUnits="userSpaceOnUse" x1="351.366" y1="312.875" x2="351.366" y2="301.375" gradientTransform="matrix(4.167 0 0 -4.167 -983.994 1559.654)"><stop offset="0" stop-color="#80B232"/><stop offset="1" stop-color="#62A329"/></linearGradient><path fill="url(#a)" d="M504 297.928c0 3.307-2.683 5.989-5.989 5.989h-35.938c-3.308 0-5.99-2.683-5.99-5.989v-35.938c0-3.307 2.682-5.99 5.99-5.99h35.938c3.307 0 5.989 2.683 5.989 5.99v35.938z"/><path fill="#599123" d="M482.264 290.324v5.065s.025 1.771 2 1.771c1.977 0 2.065-1.747 2.065-1.747v-5.09h1.888c1.574 0 1.621-1.544 1.621-1.544v-17.704h-18.761v17.704s.044 1.544 1.621 1.544h1.887v5.09s.089 1.747 2.064 1.747 1.998-1.771 1.998-1.771v-5.065h3.617z"/><path fill="#599123" d="M491.238 284.388s.045 1.614 1.983 1.614c1.94 0 1.909-1.614 1.909-1.614v-12.548s.031-1.614-1.909-1.614c-1.938 0-1.983 1.614-1.983 1.614v12.548z"/><path fill="#599123" d="M465.608 284.388s.045 1.614 1.983 1.614c1.939 0 1.91-1.614 1.91-1.614v-12.548s.03-1.614-1.91-1.614c-1.938 0-1.983 1.614-1.983 1.614v12.548z"/><path fill="#599123" d="M471.122 269.835s.134-3.855 3.863-6.499l-1.109-2.286.4-.224 1.198 2.195s5.106-2.554 9.991 0l1.198-2.241.376.179-1.196 2.331s3.996 2.195 3.996 6.544h-18.717z"/><path fill="#fff" d="M482.264 291.389v5.018s.025 1.755 2 1.755c1.977 0 2.065-1.73 2.065-1.73v-5.042h1.888c1.574 0 1.621-1.53 1.621-1.53v-17.538h-18.761v17.538s.044 1.53 1.621 1.53h1.887v5.042s.089 1.73 2.064 1.73 1.998-1.755 1.998-1.755v-5.018h3.617z"/><path fill="#fff" d="M491.238 285.507s.045 1.6 1.983 1.6c1.94 0 1.909-1.6 1.909-1.6v-12.431s.031-1.599-1.909-1.599c-1.938 0-1.983 1.599-1.983 1.599v12.431z"/><path fill="#fff" d="M465.608 285.507s.045 1.6 1.983 1.6c1.939 0 1.91-1.6 1.91-1.6v-12.431s.03-1.599-1.91-1.599c-1.938 0-1.983 1.599-1.983 1.599v12.431z"/><path fill="#fff" d="M471.122 271.083s.134-3.819 3.863-6.438l-1.109-2.265.4-.222 1.198 2.175s5.106-2.53 9.991 0l1.198-2.22.376.178-1.196 2.309s3.996 2.175 3.996 6.482h-18.717zm6.334-4.568c-.746 0-1.353.604-1.353 1.351s.606 1.351 1.353 1.351c.746 0 1.351-.604 1.351-1.351s-.605-1.351-1.351-1.351zm6.334 0c-.743 0-1.352.604-1.352 1.351s.608 1.351 1.352 1.351c.747 0 1.354-.604 1.354-1.351s-.607-1.351-1.354-1.351z"/></svg>