<svg xmlns="http://www.w3.org/2000/svg" viewBox="456 256 48 48" enable-background="new 456 256 48 48"><linearGradient id="a" gradientUnits="userSpaceOnUse" x1="351.366" y1="312.875" x2="351.366" y2="301.375" gradientTransform="matrix(4.167 0 0 -4.167 -983.994 1559.654)"><stop offset="0" stop-color="#242424"/><stop offset="1" stop-color="#141414"/></linearGradient><path fill="url(#a)" d="M504 297.928c0 3.307-2.683 5.989-5.989 5.989h-35.938c-3.308 0-5.99-2.683-5.99-5.989v-35.938c0-3.307 2.682-5.99 5.99-5.99h35.938c3.307 0 5.989 2.683 5.989 5.99v35.938z"/><path d="M490.648 273.344s-2.722-4.108-8.131-2.144c-2.232.75-3.418.465-4.813-.07-1.397-.537-4.329-1.394-7.467 2.356-3.14 3.752-1.116 10.36-.384 12.074s3.698 8.717 8.479 6.145c4.081-2.25 6.036 3.215 9.837-1.144 0 0 2.303-2.714 3.211-5.822 0 0-3.698-1.643-3.698-6.001.001-3.966 2.966-5.394 2.966-5.394z"/><path d="M485.553 263.664s-5.545.357-5.617 6.608c0 0 5.512.036 5.617-6.608z"/><path fill="#fff" d="M490.648 274.786s-2.722-4.013-8.131-2.094c-2.232.733-3.418.454-4.813-.069-1.397-.524-4.329-1.361-7.467 2.302-3.14 3.665-1.116 10.119-.384 11.793s3.698 8.514 8.479 6.001c4.081-2.197 6.036 3.141 9.837-1.116 0 0 2.303-2.651 3.211-5.688 0 0-3.698-1.604-3.698-5.861.001-3.873 2.966-5.268 2.966-5.268z"/><path fill="#fff" d="M485.553 265.331s-5.545.349-5.617 6.455c0-.001 5.512.034 5.617-6.455z"/></svg>