<svg xmlns="http://www.w3.org/2000/svg" viewBox="0 0 611 611" enable-background="new 0 0 611 611"><linearGradient id="a" gradientUnits="userSpaceOnUse" x1="342.777" y1="314.278" x2="342.777" y2="302.778" gradientTransform="matrix(53.039 0 0 -53.039 -17874.906 16669.43)"><stop offset="0" stop-color="#004889"/><stop offset="1" stop-color="#00346E"/></linearGradient><path fill="url(#a)" d="M610.553 534.237c0 42.095-34.152 76.234-76.234 76.234h-457.462c-42.107 0-76.248-34.152-76.248-76.234v-457.461c0-42.096 34.141-76.248 76.248-76.248h457.461c42.096 0 76.234 34.152 76.234 76.248v457.461z"/><path fill="#fff" d="M247.434 75.511c64.593-6.113 130.795-3.274 193.46 14.484 22.37 7.241 46.774 15.562 61.586 34.979 7.188 8.476 4.186 19.907 3.106 29.83-10.081 62.661-20.922 125.217-31.702 187.718-3.431 18.075-21.089 28.057-35.842 36.265-53.753 26.446-115.825 30.849-174.677 25.157-39.485-5.144-80.845-14.428-112.604-39.858-15.558-11.157-14.698-31.652-18.188-48.438-9.338-58.961-21.406-117.546-28.544-176.72 3.542-25.805 32.514-36.323 53.76-44.903 28.913-10.037 59.227-15.454 89.645-18.514z"/><linearGradient id="b" gradientUnits="userSpaceOnUse" x1="174.166" y1="387.883" x2="438.009" y2="387.883" gradientTransform="matrix(1 0 0 -1 -.5 520.5)"><stop offset="0" stop-color="#004889"/><stop offset="1" stop-color="#00346E"/></linearGradient><path fill="url(#b)" d="M222.538 111.562c53.596-8.532 108.532-8.369 162.18-.373 18.726 3.698 40.343 6.062 52.791 22.423-17.704 17.865-44.261 19.258-67.7 23.067-42.604 4.615-85.785 4.454-128.383-.214-23.498-3.536-49.518-5.686-67.76-22.854 11.057-15.879 31.385-18.346 48.872-22.049z"/><linearGradient id="c" gradientUnits="userSpaceOnUse" x1="242.068" y1="223.386" x2="370.256" y2="223.386" gradientTransform="matrix(1 0 0 -1 -.5 520.5)"><stop offset="0" stop-color="#004889"/><stop offset="1" stop-color="#00346E"/></linearGradient><path fill="url(#c)" d="M280.483 238.116c37.018-17.487 84.813 10.091 88.519 50.646 5.796 34.872-22.645 70.173-57.78 72.314-34.762 4.135-68.993-25.536-69.478-60.563-2.088-26.341 14.598-52.358 38.739-62.397z"/><path fill="#fff" d="M290.511 268.757c19.103-11.59 46.941 3.912 46.837 26.282 3.271 23.874-25.966 42.757-46.461 30.478-22.854-9.871-22.854-46.409-.376-56.76z"/><path fill="#fff" d="M155.371 402.446l5.041-2.472c85.407 56.389 204.773 56.389 290.24.056 13.413 3.862 3.433 20.387 3.274 29.88-8.157 28.061-3.06 66.421-33.321 82.354-50.967 28.705-113.142 30.257-169.684 21.348-29.562-6.38-64.755-14.693-81.012-42.917-7.3-27.358-11.805-55.578-16.361-83.528l1.823-4.721z"/></svg>