<svg xmlns="http://www.w3.org/2000/svg" viewBox="456 256 48 48" enable-background="new 456 256 48 48"><linearGradient id="a" gradientUnits="userSpaceOnUse" x1="351.366" y1="312.875" x2="351.366" y2="301.375" gradientTransform="matrix(4.167 0 0 -4.167 -983.994 1559.654)"><stop offset="0" stop-color="#EC9728"/><stop offset="1" stop-color="#DF4C18"/></linearGradient><path fill="url(#a)" d="M504 297.928c0 3.307-2.683 5.989-5.989 5.989h-35.938c-3.308 0-5.99-2.683-5.99-5.989v-35.938c0-3.307 2.682-5.99 5.99-5.99h35.938c3.307 0 5.989 2.683 5.989 5.99v35.938z"/><path fill="#DF4C18" d="M492.603 275.849h-1.657s-1.489.083-1.489-2.07-.581-8.032-7.206-8.032h-7.287s-7.702-.332-7.702 7.867v11.097s0 7.949 7.619 7.949h11.759s7.784-.248 7.784-8.198v-6.956s.248-1.657-1.821-1.657zm-16.77-3.229h5.134c.892 0 1.616.723 1.616 1.615 0 .893-.725 1.615-1.616 1.615h-5.134c-.892 0-1.615-.722-1.615-1.615s.723-1.615 1.615-1.615zm10.103 13.167h-10.103c-.892 0-1.615-.724-1.615-1.615s.723-1.615 1.615-1.615h10.103c.893 0 1.615.724 1.615 1.615s-.723 1.615-1.615 1.615z"/><path fill="#fff" d="M492.603 277.689h-1.657s-1.489.083-1.489-2.07-.581-8.033-7.206-8.033h-7.287s-7.702-.332-7.702 7.867v11.097s0 7.949 7.619 7.949h11.759s7.784-.248 7.784-8.198v-6.956s.248-1.656-1.821-1.656zm-16.77-3.23h5.134c.892 0 1.616.723 1.616 1.615s-.725 1.614-1.616 1.614h-5.134c-.892 0-1.615-.722-1.615-1.614s.723-1.615 1.615-1.615zm10.103 13.168h-10.103c-.892 0-1.615-.724-1.615-1.615s.723-1.615 1.615-1.615h10.103c.893 0 1.615.724 1.615 1.615s-.723 1.615-1.615 1.615z"/></svg>