<svg xmlns="http://www.w3.org/2000/svg" viewBox="0 0 611 611" enable-background="new 0 0 611 611"><linearGradient id="a" gradientUnits="userSpaceOnUse" x1="24.039" y1="603.89" x2="24.039" y2="555.89" gradientTransform="matrix(12.729 0 0 -12.729 -.5 7687.021)"><stop offset="0" stop-color="#41B8D0"/><stop offset="1" stop-color="#256FBB"/></linearGradient><path fill="url(#a)" d="M611 534.625c0 42.172-34.203 76.375-76.375 76.375h-458.25c-42.172 0-76.375-34.203-76.375-76.375v-458.25c0-42.172 34.203-76.375 76.375-76.375h458.25c42.172 0 76.375 34.203 76.375 76.375v458.25z"/><circle fill="#fff" cx="121.639" cy="145.671" r="49.472"/><path fill="#fff" d="M353.989 145.671c0 27.324-22.148 49.472-49.469 49.472-27.327 0-49.475-22.147-49.475-49.472 0-27.324 22.148-49.471 49.475-49.471 27.321 0 49.469 22.148 49.469 49.471z"/><path fill="#fff" d="M535.767 145.671c0 27.324-22.148 49.472-49.469 49.472-27.326 0-49.475-22.147-49.475-49.472 0-27.324 22.148-49.471 49.475-49.471 27.32 0 49.469 22.148 49.469 49.471z"/><path fill="#fff" d="M353.989 309.652c0 27.324-22.148 49.472-49.469 49.472-27.327 0-49.475-22.147-49.475-49.472 0-27.324 22.148-49.472 49.475-49.472 27.321 0 49.469 22.149 49.469 49.472z"/><path fill="#fff" d="M535.767 308.542c0 27.326-22.148 49.475-49.469 49.475-27.326 0-49.475-22.148-49.475-49.475 0-27.324 22.148-49.472 49.475-49.472 27.32 0 49.469 22.148 49.469 49.472z"/><path fill="#fff" d="M535.767 475.859c0 27.325-22.148 49.474-49.469 49.474-27.326 0-49.475-22.148-49.475-49.474 0-27.321 22.148-49.47 49.475-49.47 27.32.001 49.469 22.149 49.469 49.47z"/></svg>