<svg xmlns="http://www.w3.org/2000/svg" viewBox="176 76 48 48" enable-background="new 176 76 48 48"><linearGradient id="a" gradientUnits="userSpaceOnUse" x1="71.366" y1="132.875" x2="71.366" y2="121.375" gradientTransform="matrix(4.167 0 0 -4.167 -97.318 629.646)"><stop offset="0" stop-color="#F93C2D"/><stop offset="1" stop-color="#D32D20"/></linearGradient><path fill="url(#a)" d="M224 117.928c0 3.307-2.683 5.989-5.989 5.989h-35.938c-3.308 0-5.99-2.683-5.99-5.989v-35.938c0-3.307 2.682-5.99 5.99-5.99h35.938c3.307 0 5.989 2.683 5.989 5.99v35.938z"/><path fill-rule="evenodd" clip-rule="evenodd" fill="#CD2D20" d="M199.029 110.474c-2.331 0-4.684.203-6.989-.04-5.63-.593-9.585-5.578-9.251-11.391.31-5.414 4.998-9.879 10.496-9.831 1.387.012 2.375-.356 3.451-1.22 4.183-3.354 10.071-3.499 14.617-.511 4.399 2.891 6.517 8.44 5.2 13.632-1.331 5.25-5.74 9.011-11.206 9.401-2.096.151-4.209.025-6.316.025l-.002-.065zm-1.135-20.41c.379.222.663.33.872.521.769.702 1.458.607 2.398.168 5.424-2.526 11.691 1.944 11.093 7.857-.337 3.307-2.051 5.651-5.149 6.804-3.147 1.173-5.997.468-8.41-1.867-1.513-1.465-2.977-2.98-4.47-4.466-.678-.675-1.386-.773-1.855-.24-.612.697-.313 1.289.257 1.855 1.588 1.573 3.133 3.191 4.749 4.736 2.015 1.923 4.469 2.892 7.24 2.774 6.052-.257 10.371-5.1 9.858-11.147-.336-3.97-2.451-6.878-6.123-8.44-3.662-1.557-7.143-1.01-10.46 1.445zm-1.254 18.115c-.511-.562-.988-1.043-1.415-1.566-.448-.549-.983-.709-1.692-.714-2.919-.021-5.259-1.834-5.941-4.523-.669-2.633.512-5.436 2.845-6.754 2.479-1.401 5.358-.953 7.465 1.165.959.963 1.926 1.921 2.875 2.896.558.573 1.151.889 1.854.286.552-.472.458-1.159-.23-1.859-1.064-1.086-2.132-2.172-3.224-3.232-3.386-3.29-8.814-3.052-11.969.511-3.092 3.493-2.634 8.919.942 11.896 2.522 2.098 5.473 2.008 8.49 1.894z"/><path fill-rule="evenodd" clip-rule="evenodd" fill="#fff" d="M199.029 112.457c-2.331 0-4.684.202-6.989-.041-5.63-.593-9.585-5.578-9.251-11.391.31-5.415 4.998-9.88 10.496-9.831 1.387.011 2.375-.357 3.451-1.22 4.183-3.355 10.071-3.499 14.617-.511 4.399 2.891 6.517 8.441 5.2 13.632-1.331 5.251-5.74 9.011-11.206 9.401-2.096.151-4.209.025-6.316.025l-.002-.064zm-1.135-20.411c.379.222.663.33.872.521.769.702 1.458.607 2.398.168 5.424-2.526 11.691 1.944 11.093 7.857-.337 3.307-2.051 5.651-5.149 6.804-3.147 1.174-5.997.468-8.41-1.867-1.513-1.465-2.977-2.98-4.47-4.466-.678-.674-1.386-.772-1.855-.24-.612.697-.313 1.29.257 1.855 1.588 1.574 3.133 3.191 4.749 4.736 2.015 1.923 4.469 2.892 7.24 2.774 6.052-.257 10.371-5.1 9.858-11.147-.336-3.969-2.451-6.878-6.123-8.44-3.662-1.556-7.143-1.009-10.46 1.445zm-1.254 18.115c-.511-.562-.988-1.043-1.415-1.566-.448-.549-.983-.709-1.692-.714-2.919-.021-5.259-1.834-5.941-4.522-.669-2.634.512-5.437 2.845-6.755 2.479-1.401 5.358-.953 7.465 1.165.959.963 1.926 1.921 2.875 2.896.558.573 1.151.889 1.854.286.552-.472.458-1.159-.23-1.859-1.064-1.086-2.132-2.172-3.224-3.232-3.386-3.29-8.814-3.051-11.969.511-3.092 3.493-2.634 8.919.942 11.896 2.522 2.098 5.473 2.008 8.49 1.894z"/></svg>