<svg xmlns="http://www.w3.org/2000/svg" viewBox="0 0 48 48" enable-background="new 0 0 48 48"><linearGradient id="a" gradientUnits="userSpaceOnUse" x1="24" x2="24" y2="48.001"><stop offset="0" stop-color="#318CCB"/><stop offset="1" stop-color="#293F7E"/></linearGradient><path fill-rule="evenodd" clip-rule="evenodd" fill="url(#a)" d="M48 42c0 3.313-2.687 6-6 6h-36c-3.313 0-6-2.687-6-6v-36c0-3.313 2.687-6 6-6h36c3.313 0 6 2.687 6 6v36z"/><linearGradient id="b" gradientUnits="userSpaceOnUse" x1="33" y1="29.418" x2="15.207" y2="29.418"><stop offset=".313" stop-color="#B6E3ED"/><stop offset=".498" stop-color="#93D1E4"/><stop offset=".907" stop-color="#3BA2CD"/><stop offset="1" stop-color="#2697C8"/></linearGradient><polygon fill-rule="evenodd" clip-rule="evenodd" fill="url(#b)" points="15.207,17.655 15.36,35.24 24.12,41.181 33,35.2 33,24.927"/><linearGradient id="c" gradientUnits="userSpaceOnUse" x1="33" y1="32.868" x2="24.028" y2="32.868"><stop offset=".313" stop-color="#B6E3ED"/><stop offset=".498" stop-color="#93D1E4"/><stop offset=".907" stop-color="#3BA2CD"/><stop offset="1" stop-color="#2697C8"/></linearGradient><polygon opacity=".5" fill-rule="evenodd" clip-rule="evenodd" fill="url(#c)" points="33,24.927 33,35.2 24.19,41.181 24.028,24.557"/><linearGradient id="d" gradientUnits="userSpaceOnUse" x1="24.5" y1="13.481" x2="24.5" y2="25.421"><stop offset="0" stop-color="#B1E0EF"/><stop offset="1" stop-color="#A0C9D7"/></linearGradient><polygon fill-rule="evenodd" clip-rule="evenodd" fill="url(#d)" points="24.577,13.481 15.487,19.534 24.441,25.421 33.514,19.39"/><linearGradient id="e" gradientUnits="userSpaceOnUse" x1="42.501" y1="13.471" x2="24.577" y2="13.471"><stop offset=".08" stop-color="#B6E3ED"/><stop offset=".344" stop-color="#84C9E0"/><stop offset=".645" stop-color="#51AED3"/><stop offset=".873" stop-color="#329DCB"/><stop offset="1" stop-color="#2697C8"/></linearGradient><polygon fill-rule="evenodd" clip-rule="evenodd" fill="url(#e)" points="33.564,7.553 24.577,13.481 33.514,19.39 42.501,13.46"/><linearGradient id="f" gradientUnits="userSpaceOnUse" x1="24.577" y1="13.543" x2="6.5" y2="13.543"><stop offset=".08" stop-color="#B6E3ED"/><stop offset=".333" stop-color="#87D0E9"/><stop offset=".639" stop-color="#54BCE5"/><stop offset=".871" stop-color="#35AFE2"/><stop offset="1" stop-color="#29AAE1"/></linearGradient><polygon fill-rule="evenodd" clip-rule="evenodd" fill="url(#f)" points="15.59,7.553 6.5,13.605 15.487,19.534 24.577,13.481"/><linearGradient id="g" gradientUnits="userSpaceOnUse" x1="42.501" y1="25.318" x2="24.441" y2="25.318"><stop offset=".08" stop-color="#B6E3ED"/><stop offset=".344" stop-color="#84C9E0"/><stop offset=".645" stop-color="#51AED3"/><stop offset=".873" stop-color="#329DCB"/><stop offset="1" stop-color="#2697C8"/></linearGradient><polygon fill-rule="evenodd" clip-rule="evenodd" fill="url(#g)" points="33.514,19.39 24.441,25.421 33.514,31.248 42.501,25.32"/><linearGradient id="h" gradientUnits="userSpaceOnUse" x1="24.441" y1="25.463" x2="6.5" y2="25.463"><stop offset=".08" stop-color="#B6E3ED"/><stop offset=".333" stop-color="#87D0E9"/><stop offset=".639" stop-color="#54BCE5"/><stop offset=".871" stop-color="#35AFE2"/><stop offset="1" stop-color="#29AAE1"/></linearGradient><polygon opacity=".84" fill-rule="evenodd" clip-rule="evenodd" fill="url(#h)" points="15.487,19.534 6.5,25.463 15.487,31.392 24.441,25.421"/><linearGradient id="i" gradientUnits="userSpaceOnUse" x1="20.032" y1="13.481" x2="20.032" y2="25.421"><stop offset="0" stop-color="#E3F3F9"/><stop offset="1" stop-color="#C7F3F9"/></linearGradient><polygon fill-rule="evenodd" clip-rule="evenodd" fill="url(#i)" points="24.441,25.421 15.487,19.534 24.577,13.481"/></svg>