<svg xmlns="http://www.w3.org/2000/svg" viewBox="176 76 48 48" enable-background="new 176 76 48 48"><linearGradient id="a" gradientUnits="userSpaceOnUse" x1="71.366" y1="132.875" x2="71.366" y2="121.375" gradientTransform="matrix(4.167 0 0 -4.167 -97.318 629.646)"><stop offset="0" stop-color="#95CE4A"/><stop offset="1" stop-color="#6B9911"/></linearGradient><path fill="url(#a)" d="M224 117.928c0 3.307-2.683 5.989-5.989 5.989h-35.938c-3.308 0-5.99-2.683-5.99-5.989v-35.938c0-3.307 2.682-5.99 5.99-5.99h35.938c3.307 0 5.989 2.683 5.989 5.99v35.938z"/><path fill-rule="evenodd" clip-rule="evenodd" fill="#95CE4A" d="M200.162 104.621c-.267 1.029-.585 2.327-.939 3.614-.203.73-.723 1.146-1.479.995-2.816-.562-5.652-1.071-8.414-1.84-.655-.182-1.334-1.23-1.513-1.994-.721-3.087-1.375-6.201-1.808-9.338-.318-2.302.774-3.32 3.124-3.389.921-.027 1.845-.013 2.767-.036.993-.024 1.349-.37 1.37-1.382v-3.163c.027-1.445.694-2.273 2.105-2.568 1.738-.363 3.496-.32 5.158.265.668.235 1.304.86 1.702 1.473.317.49.578.619 1.117.666 2.382.208 4.774.38 7.13.767 1.865.307 2.67 1.297 2.774 3.143.246 4.3.65 8.609.552 12.904-.089 3.883-.61 7.778-2.304 11.394-.665 1.418-1.653 2.469-3.247 2.491-2.056.029-4.126-.099-6.173-.313-1.201-.125-1.938-1.048-2.06-2.21-.13-1.224-.135-2.487.026-3.704.163-1.245 1.112-2.028 2.365-2.145.876-.082 1.766-.016 2.688-.016v2.315l-1.028.058c-.763.029-1.351.212-1.335 1.171.017 1.034.245 1.352 1.312 1.396.952.041 1.91.042 2.859-.028.862-.062 1.408-.564 1.391-1.475-.021-1.111-.027-2.233-.185-3.331-.191-1.344-.975-1.949-2.324-2.093-1.011-.108-2.023-.239-3.021-.435-1.788-.347-2.436-1.234-2.61-3.192zm5.452-3.617l3.224.396c.147-1.234-.315-1.971-1.361-2.108-1.078-.141-1.686.418-1.863 1.712z"/><path fill-rule="evenodd" clip-rule="evenodd" fill="#95CE4A" d="M187.259 90.836l5.034-5.262c0 1.529-.026 2.947.012 4.362.018.676-.189.936-.9.914-1.49-.047-2.985-.014-4.146-.014z"/><g><linearGradient id="b" gradientUnits="userSpaceOnUse" x1="199.889" y1="116.628" x2="199.889" y2="83.29"><stop offset="0" stop-color="#121212"/><stop offset=".495" stop-color="#0F0F0F"/><stop offset=".869" stop-color="#050505"/><stop offset="1"/></linearGradient><path fill-rule="evenodd" clip-rule="evenodd" fill="url(#b)" d="M200.162 102.621c-.267 1.029-.585 2.327-.939 3.614-.203.73-.723 1.146-1.479.995-2.816-.562-5.652-1.071-8.414-1.84-.655-.182-1.334-1.23-1.513-1.994-.721-3.087-1.375-6.201-1.808-9.338-.318-2.302.774-3.32 3.124-3.389.921-.027 1.845-.013 2.767-.036.993-.024 1.349-.37 1.37-1.382v-3.163c.027-1.445.694-2.273 2.105-2.568 1.738-.363 3.496-.32 5.158.265.668.235 1.304.86 1.702 1.473.317.49.578.619 1.117.666 2.382.208 4.774.38 7.13.767 1.865.307 2.67 1.297 2.774 3.143.246 4.3.65 8.609.552 12.904-.089 3.883-.61 7.778-2.304 11.394-.665 1.418-1.653 2.469-3.247 2.491-2.056.029-4.126-.099-6.173-.313-1.201-.125-1.938-1.048-2.06-2.21-.13-1.224-.135-2.487.026-3.704.163-1.245 1.112-2.028 2.365-2.145.876-.082 1.766-.016 2.688-.016v2.315l-1.028.058c-.763.029-1.351.212-1.335 1.171.017 1.034.245 1.352 1.312 1.396.952.041 1.91.042 2.859-.028.862-.062 1.408-.564 1.391-1.475-.021-1.111-.027-2.233-.185-3.331-.191-1.344-.975-1.949-2.324-2.093-1.011-.108-2.023-.239-3.021-.435-1.788-.347-2.436-1.234-2.61-3.192zm5.452-3.617l3.224.396c.147-1.234-.315-1.97-1.361-2.108-1.078-.141-1.686.418-1.863 1.712z"/></g><linearGradient id="c" gradientUnits="userSpaceOnUse" x1="189.783" y1="89.852" x2="189.783" y2="84.575"><stop offset="0"/><stop offset="1"/></linearGradient><path fill-rule="evenodd" clip-rule="evenodd" fill="url(#c)" d="M187.259 89.836l5.034-5.262c0 1.529-.026 2.947.012 4.362.018.676-.189.936-.9.914-1.49-.047-2.985-.014-4.146-.014z"/></svg>