<svg xmlns="http://www.w3.org/2000/svg" viewBox="176 76 48 48" enable-background="new 176 76 48 48"><linearGradient id="a" gradientUnits="userSpaceOnUse" x1="73.043" y1="79.398" x2="73.043" y2="82.16" gradientTransform="matrix(17.361 0 0 17.361 -1068.118 -1302.446)"><stop offset="0" stop-color="#4B71B8"/><stop offset="1" stop-color="#293F7E"/></linearGradient><path fill="url(#a)" d="M224 117.957c0 3.308-2.688 5.993-6 5.993h-36c-3.313 0-6-2.686-6-5.993v-35.963c0-3.31 2.687-5.994 6-5.994h36c3.312 0 6 2.684 6 5.994v35.963z"/><path opacity=".3" fill="#fff" enable-background="new" d="M224 114.839v3.118c0 3.308-2.688 5.993-6 5.993h-36c-3.313 0-6-2.686-6-5.993v-3.118h48z"/><path fill="#fff" d="M213.285 85.37h-6.166c-3.659 0-7.729 1.539-7.729 6.843.018 1.848 0 3.618 0 5.61h-4.233v6.736h4.364v19.392h8.019v-19.52h5.293l.479-6.627h-5.91s.013-2.948 0-3.804c0-2.096 2.181-1.976 2.312-1.976 1.038 0 3.056.003 3.574 0v-6.654h-.003z"/></svg>