<svg xmlns="http://www.w3.org/2000/svg" viewBox="0 0 44 44" enable-background="new 0 0 44 44"><linearGradient id="a" gradientUnits="userSpaceOnUse" x1="333.772" y1="-362.954" x2="333.772" y2="-410.954" gradientTransform="matrix(.917 0 0 -.917 -283.958 -332.708)"><stop offset="0" stop-color="#62BC46"/><stop offset="1" stop-color="#53A037"/></linearGradient><path fill="url(#a)" d="M44 38.5c0 3.037-2.463 5.5-5.5 5.5h-33c-3.037 0-5.5-2.463-5.5-5.5v-33c0-3.037 2.463-5.5 5.5-5.5h33c3.037 0 5.5 2.463 5.5 5.5v33z"/><path fill="#53A037" d="M6.511 20.373s5.69-10.541 17.705-7.306c0 0-.243-2.737 3.491-3.652 0 0 .788 2.795-2.401 4.048 0 0 4.739 1.592 6.327 7.266 1.586 5.673-3.01 9.832-5.63 10.698-2.624.865-5.543.611-7.384-1.56-1.843-2.172-.786-4.608.067-5.344.582-.501 1.005-.583 1.315-.391.38.237.345.695.113 1.548-.23.851.16 2.688 1.907 3.291 1.746.603 4.854-.498 5.47-2.96.614-2.459-.033-5.923-3.982-7.023-3.949-1.101-8.292.547-10.199 4.368-1.906 3.821-.331 10.662 4.74 12.341 5.072 1.677 7.665.687 8.845.242 1.179-.441 5.114-1.812 7.97-6.014 2.854-4.204 3.227-9.029 2.069-13.09-1.156-4.062-4.619-8.669-10.332-10.493-5.715-1.822-11.466.327-14.32 2.748-2.853 2.421-5.354 5.772-5.771 11.283z"/><path fill="#fff" d="M6.511 22.373s5.69-10.541 17.705-7.306c0 0-.243-2.737 3.491-3.652 0 0 .788 2.795-2.401 4.048 0 0 4.739 1.592 6.327 7.266 1.586 5.673-3.01 9.832-5.63 10.698-2.624.865-5.543.611-7.384-1.56-1.843-2.172-.786-4.608.067-5.344.582-.501 1.005-.583 1.315-.391.38.237.345.695.113 1.548-.23.851.16 2.688 1.907 3.291 1.746.603 4.854-.498 5.47-2.96.614-2.459-.033-5.923-3.982-7.023-3.949-1.101-8.292.547-10.199 4.368-1.906 3.821-.331 10.662 4.74 12.341 5.072 1.677 7.665.687 8.845.242 1.179-.441 5.114-1.812 7.97-6.014 2.854-4.204 3.227-9.029 2.069-13.09-1.156-4.062-4.619-8.669-10.332-10.493-5.715-1.822-11.466.327-14.32 2.748-2.853 2.421-5.354 5.772-5.771 11.283z"/></svg>