<svg xmlns="http://www.w3.org/2000/svg" xmlns:xlink="http://www.w3.org/1999/xlink" viewBox="176 76 48 48" enable-background="new 176 76 48 48"><linearGradient id="a" gradientUnits="userSpaceOnUse" x1="71.366" y1="132.875" x2="71.366" y2="121.375" gradientTransform="matrix(4.167 0 0 -4.167 -97.318 629.646)"><stop offset="0" stop-color="#A6E6FB"/><stop offset="1" stop-color="#1E86BC"/></linearGradient><path fill="url(#a)" d="M224 117.928c0 3.307-2.683 5.989-5.989 5.989h-35.938c-3.308 0-5.99-2.683-5.99-5.989v-35.938c0-3.307 2.682-5.99 5.99-5.99h35.938c3.307 0 5.989 2.683 5.989 5.99v35.938z"/><defs><path id="b" d="M224 117.928c0 3.307-2.683 5.989-5.989 5.989h-35.938c-3.308 0-5.99-2.683-5.99-5.989v-35.938c0-3.307 2.682-5.99 5.99-5.99h35.938c3.307 0 5.989 2.683 5.989 5.99v35.938z"/></defs><clipPath id="c"><use xlink:href="#b" overflow="visible"/></clipPath><linearGradient id="d" gradientUnits="userSpaceOnUse" x1="199.812" y1="86.624" x2="199.812" y2="115.251"><stop offset="0" stop-color="#3186C2"/><stop offset="1" stop-color="#1D649C"/></linearGradient><path opacity=".7" clip-path="url(#c)" fill="url(#d)" d="M200.312 115.25h-.002c-.686-.001-1.34-.283-1.812-.78l-12.125-12.791c-.465-.491-.711-1.148-.684-1.824.028-.675.329-1.311.833-1.761l12.125-10.833c1.013-.906 2.565-.836 3.495.16l11.125 11.938c.901.968.894 2.47-.019 3.428l-11.125 11.688c-.472.495-1.126.775-1.811.775z"/><path clip-path="url(#c)" fill="#fff" d="M218.062 75.688l-18.021 24.562-2.624-4.25s-5.854 1.293-6.042 5.709l8.625 7.041 24-20.125s-.5-12.938 0-12.938l-5.938.001z"/><linearGradient id="e" gradientUnits="userSpaceOnUse" x1="189.27" y1="85.416" x2="189.27" y2="101.71"><stop offset="0" stop-color="#D5EA8D"/><stop offset="1" stop-color="#A5C82D"/></linearGradient><circle clip-path="url(#c)" fill="url(#e)" cx="189.271" cy="93.562" r="8.146"/><path clip-path="url(#c)" fill="#236EB4" d="M200.042 109.375c-.168 0-.336-.057-.475-.169l-7.763-6.347c-.81.218-1.646.328-2.492.328-5.273 0-9.562-4.29-9.562-9.562s4.29-9.562 9.562-9.562 9.562 4.29 9.562 9.562c0 .916-.129 1.819-.384 2.689l1.583 2.749 17.331-23.755c.243-.335.711-.408 1.048-.164.334.244.407.713.163 1.048l-18.011 24.688c-.149.204-.383.324-.646.307-.253-.014-.483-.154-.609-.375l-2.292-3.979c-.075-.131-.109-.281-.098-.432l.015-.198.032-.167c.244-.777.367-1.589.367-2.412 0-4.446-3.617-8.062-8.062-8.062s-8.062 3.617-8.062 8.062 3.617 8.062 8.062 8.062c.768 0 1.526-.107 2.257-.319.268-.156.601-.147.843.051l7.626 6.234 23.8-19.745c.317-.264.474.042.738.362.265.319.221.792-.099 1.056l-23.958 19.875c-.136.117-.306.175-.476.175z"/></svg>