<svg xmlns="http://www.w3.org/2000/svg" viewBox="456 256 48 48" enable-background="new 456 256 48 48"><linearGradient id="a" gradientUnits="userSpaceOnUse" x1="351.366" y1="312.875" x2="351.366" y2="301.375" gradientTransform="matrix(4.167 0 0 -4.167 -983.994 1559.654)"><stop offset="0" stop-color="#F93C2D"/><stop offset="1" stop-color="#D32D20"/></linearGradient><path fill="url(#a)" d="M504 297.928c0 3.307-2.683 5.989-5.989 5.989h-35.938c-3.308 0-5.99-2.683-5.99-5.989v-35.938c0-3.307 2.682-5.99 5.99-5.99h35.938c3.307 0 5.989 2.683 5.989 5.99v35.938z"/><path fill="#CD2D20" d="M478.5 263.667l-2.708 2.583 3.75 3.75s1.209-.583 2.563.479c1.25.979.666 2.646.666 2.646l3.667 3.521s1.75-.542 2.792.812.459 2.625-.146 3.25-2.396 1.188-3.584-.021l-.562-2.667-3.416-3.271v8.709s1.396.582 1.396 2.229-1.521 2.396-2.667 2.396-2.396-1-2.396-2.562l1.583-2.167v-8.75s-2.188-.958-1.396-3.25l-3.771-3.625-9.542 9.208s-2.073 1.553.083 3.709l13.958 13.479s1.521 1.604 3.271-.104l14.125-13.625s1.583-1.625.146-3l-14.604-14.083s-1.291-1.334-3.208.354z"/><path fill="#fff" d="M478.5 265.667l-2.708 2.583 3.75 3.75s1.209-.583 2.563.479c1.25.979.666 2.646.666 2.646l3.667 3.521s1.75-.542 2.792.812.459 2.625-.146 3.25-2.396 1.188-3.584-.021l-.562-2.667-3.416-3.271v8.709s1.396.582 1.396 2.229-1.521 2.396-2.667 2.396-2.396-1-2.396-2.562l1.583-2.167v-8.75s-2.188-.958-1.396-3.25l-3.771-3.625-9.542 9.208s-2.073 1.553.083 3.709l13.958 13.479s1.521 1.604 3.271-.104l14.125-13.625s1.583-1.625.146-3l-14.604-14.083s-1.291-1.334-3.208.354z"/></svg>