<svg xmlns="http://www.w3.org/2000/svg" viewBox="456 256 48 48" enable-background="new 456 256 48 48"><linearGradient id="a" gradientUnits="userSpaceOnUse" x1="351.346" y1="312.856" x2="351.346" y2="301.356" gradientTransform="matrix(4.167 0 0 -4.167 -983.994 1559.654)"><stop offset="0" stop-color="#3EABBA"/><stop offset=".251" stop-color="#3EA4AA"/><stop offset=".742" stop-color="#3E937F"/><stop offset=".779" stop-color="#3E927C"/></linearGradient><path fill="url(#a)" d="M503.916 298.011c0 3.307-2.683 5.989-5.989 5.989h-35.938c-3.308 0-5.99-2.683-5.99-5.989v-35.938c0-3.307 2.682-5.99 5.99-5.99h35.938c3.307 0 5.989 2.683 5.989 5.99v35.938z"/><path fill="#2F7C73" d="M470.309 265.669s-.648.294-.648 1.34v24.323s-.064 1.014.973 1.274l13.118-13.174-13.443-13.763z"/><polygon fill="#2F7C73" points="484.75,278.58 488.285,274.921 471.831,265.505"/><path fill="#2F7C73" d="M489.292 275.593l4.532 2.368s.842.458.842 1.079-.486 1.079-.81 1.275c-.324.196-4.814 2.638-4.814 2.638l-3.354-3.386 3.604-3.974z"/><polygon fill="#2F7C73" points="484.719,280.576 487.625,283.73 473.917,291.489"/><path fill="#fff" d="M470.309 266.917s-.648.292-.648 1.328v24.099s-.064 1.004.973 1.263l13.118-13.053-13.443-13.637z"/><polygon fill="#fff" points="484.75,279.709 488.285,276.084 471.831,266.755"/><path fill="#fff" d="M489.292 276.75l4.532 2.347s.842.453.842 1.068-.486 1.069-.81 1.264c-.324.194-4.814 2.613-4.814 2.613l-3.354-3.354 3.604-3.938z"/><polygon fill="#fff" points="484.719,281.688 487.625,284.812 473.917,292.5"/></svg>