<svg xmlns="http://www.w3.org/2000/svg" xmlns:xlink="http://www.w3.org/1999/xlink" viewBox="456 256 48 48" enable-background="new 456 256 48 48"><linearGradient id="a" gradientUnits="userSpaceOnUse" x1="351.366" y1="312.875" x2="351.366" y2="301.375" gradientTransform="matrix(4.167 0 0 -4.167 -983.994 1559.654)"><stop offset="0" stop-color="#F16528"/><stop offset="1" stop-color="#E54D26"/></linearGradient><path fill="url(#a)" d="M504 297.928c0 3.307-2.683 5.989-5.989 5.989h-35.938c-3.308 0-5.99-2.683-5.99-5.989v-35.938c0-3.307 2.682-5.99 5.99-5.99h35.938c3.307 0 5.989 2.683 5.989 5.99v35.938z"/><polygon fill="#CC3C1F" points="493.5,264.949 493.041,270.723 472.5,270.723 472.857,276.236 492.481,276.236 491.156,293.034 480.095,296.259 468.983,293.087 468.167,284.556 473.571,284.556 473.978,288.769 479.993,290.642 486.007,288.769 486.518,281.748 467.963,281.748 466.486,264.949"/><g opacity=".15"><defs><path id="b" opacity=".15" d="M504 297.928c0 3.307-2.683 5.989-5.989 5.989h-35.938c-3.308 0-5.99-2.683-5.99-5.989v-35.938c0-3.307 2.682-5.99 5.99-5.99h35.938c3.307 0 5.989 2.683 5.989 5.99v35.938z"/></defs><clipPath id="c"><use xlink:href="#b" overflow="visible"/></clipPath><rect x="480.167" y="256" clip-path="url(#c)" fill="#fff" width="23.833" height="48"/></g><polygon fill="#fff" points="493.5,266.574 493.041,272.232 472.5,272.232 472.857,277.635 492.481,277.635 491.156,294.099 480.095,297.259 468.983,294.15 468.167,285.79 473.571,285.79 473.978,289.918 479.993,291.754 486.007,289.918 486.518,283.038 467.963,283.038 466.486,266.574"/><polygon fill="#EBEBEB" points="480.095,297.259 468.983,294.15 468.167,285.79 473.571,285.79 473.978,289.918 480.095,291.754"/><polygon fill="#EBEBEB" points="480.167,283.038 467.963,283.038 466.486,266.574 480.167,266.574 480.167,272.232 472.5,272.232 472.857,277.635 480.17,277.635"/></svg>