<svg xmlns="http://www.w3.org/2000/svg" viewBox="0 0 48 48" enable-background="new 0 0 48 48"><linearGradient id="a" gradientUnits="userSpaceOnUse" x1="24" x2="24" y2="48.001"><stop offset="0" stop-color="#C7C7C7"/><stop offset="1" stop-color="#9B9B9B"/></linearGradient><path fill-rule="evenodd" clip-rule="evenodd" fill="url(#a)" d="M48 42c0 3.313-2.687 6-6 6h-36c-3.313 0-6-2.687-6-6v-36c0-3.313 2.687-6 6-6h36c3.313 0 6 2.687 6 6v36z"/><path fill="#D1D1D1" d="M35.536 36.227l-23.148-.025c-2.039-.376-5.894-2.498-5.894-7.832 0-4.468 2.417-6.41 4.339-7.039.559-1.903 2.189-4.318 5.772-4.318.728 0 1.511.104 2.341.31 1.086-1.673 3.56-4.55 7.72-4.55 1.25 0 2.557.271 3.884.804 5.405 2.17 6.641 5.962 6.505 8.598 2.337.684 5.166 2.612 5.166 6.837 0 5.707-4.372 7.215-6.685 7.215zm-22.715-3h22.715c.615 0 3.685-.203 3.685-4.215 0-3.774-3.578-4.114-3.986-4.141l-1.941-.126.615-1.845c.129-.418 1.144-4.283-4.476-6.539-.971-.39-1.901-.588-2.767-.588-3.781 0-5.566 3.787-5.641 3.948l-.569 1.237-1.289-.44c-.965-.335-1.827-.505-2.562-.505-2.58 0-2.957 2.27-3.006 2.725l-.135 1.249-1.254.1c-.435.044-2.716.468-2.716 4.283 0 3.816 2.725 4.706 3.327 4.857z"/><path fill="#282828" d="M35.536 35.227l-23.148-.025c-2.039-.376-5.894-2.498-5.894-7.832 0-4.468 2.417-6.41 4.339-7.039.559-1.903 2.189-4.318 5.772-4.318.728 0 1.511.104 2.341.31 1.086-1.673 3.56-4.55 7.72-4.55 1.25 0 2.557.271 3.884.804 5.405 2.17 6.641 5.962 6.505 8.598 2.337.684 5.166 2.611 5.166 6.837 0 5.707-4.372 7.215-6.685 7.215zm-22.715-3h22.715c.615 0 3.685-.203 3.685-4.215 0-3.775-3.578-4.114-3.986-4.141l-1.941-.125.615-1.846c.129-.418 1.144-4.283-4.476-6.539-.971-.39-1.901-.588-2.767-.588-3.781 0-5.566 3.787-5.641 3.948l-.569 1.237-1.289-.44c-.965-.335-1.827-.505-2.562-.505-2.58 0-2.957 2.27-3.006 2.725l-.135 1.249-1.254.1c-.435.044-2.716.468-2.716 4.283 0 3.816 2.725 4.706 3.327 4.857z"/></svg>