<svg xmlns="http://www.w3.org/2000/svg" xmlns:xlink="http://www.w3.org/1999/xlink" viewBox="456 256 48 48" enable-background="new 456 256 48 48"><linearGradient id="a" gradientUnits="userSpaceOnUse" x1="351.366" y1="312.875" x2="351.366" y2="301.375" gradientTransform="matrix(4.167 0 0 -4.167 -983.994 1559.654)"><stop offset="0" stop-color="#F6F8F3"/><stop offset=".14" stop-color="#F2F4EF"/><stop offset=".293" stop-color="#E8E7E1"/><stop offset=".452" stop-color="#D7D2CC"/><stop offset=".615" stop-color="#BEB4AD"/><stop offset=".782" stop-color="#9F8E86"/><stop offset=".949" stop-color="#796156"/><stop offset="1" stop-color="#6C5146"/></linearGradient><path fill="url(#a)" d="M504 297.928c0 3.307-2.683 5.989-5.989 5.989h-35.938c-3.308 0-5.99-2.683-5.99-5.989v-35.938c0-3.307 2.682-5.99 5.99-5.99h35.938c3.307 0 5.989 2.683 5.989 5.99v35.938z"/><linearGradient id="b" gradientUnits="userSpaceOnUse" x1="351.346" y1="312.875" x2="351.346" y2="309.293" gradientTransform="matrix(4.167 0 0 -4.167 -983.994 1559.654)"><stop offset="0" stop-color="#A36F59"/><stop offset="1" stop-color="#63362C"/></linearGradient><path fill="url(#b)" d="M503.916 270.928v-8.938c0-3.307-2.682-5.99-5.988-5.99h-35.938c-3.308 0-5.99 2.683-5.99 5.99v8.938h47.916z"/><image overflow="visible" width="144" height="144" xlink:href="19C10E8D56B22E12.jpg" transform="translate(759 934)"/><circle opacity=".75" fill="#372D24" cx="480.062" cy="280.812" r="13.688"/><linearGradient id="c" gradientUnits="userSpaceOnUse" x1="480.062" y1="266.625" x2="480.062" y2="293"><stop offset="0" stop-color="#E0E0E0"/><stop offset="1" stop-color="#948888"/></linearGradient><circle fill="url(#c)" cx="480.062" cy="279.812" r="13.188"/><circle fill="#0F0B0A" cx="480.062" cy="279.812" r="11.438"/><linearGradient id="d" gradientUnits="userSpaceOnUse" x1="480.063" y1="290.625" x2="480.063" y2="269"><stop offset="0" stop-color="#476364"/><stop offset="1" stop-color="#111214"/></linearGradient><circle fill="url(#d)" cx="480.062" cy="279.812" r="10.812"/><linearGradient id="e" gradientUnits="userSpaceOnUse" x1="480.062" y1="271.625" x2="480.062" y2="288"><stop offset="0" stop-color="#2C424D"/><stop offset="1" stop-color="#2A2F33"/></linearGradient><circle fill="url(#e)" cx="480.062" cy="279.812" r="8.188"/><circle fill="#16201F" cx="480.062" cy="279.812" r="5.438"/><circle fill="#293332" cx="480.062" cy="279.812" r="5.021"/><circle fill="#101615" cx="480.062" cy="279.812" r="4.542"/><circle opacity=".4" fill="#49405D" cx="480.062" cy="276.75" r="3.688"/><circle opacity=".4" fill="#49405D" cx="480.062" cy="277.75" r="2.625"/><circle opacity=".5" fill="#49405D" cx="480.125" cy="278.312" r="1.969"/><circle opacity=".06" fill="#76AFCD" cx="480.062" cy="273.5" r="4.5"/><circle opacity=".07" fill="#76AFCD" cx="480.062" cy="272.5" r="3.5"/><circle opacity=".06" fill="#76AFCD" cx="480.031" cy="273.031" r="3.969"/><circle opacity=".06" fill="#76AFCD" cx="480.062" cy="272.094" r="3.094"/><circle opacity=".06" fill="#76AFCD" cx="480.094" cy="271.531" r="2.531"/><circle opacity=".06" fill="#76AFCD" cx="480.078" cy="271.016" r="1.953"/><circle opacity=".06" fill="#76AFCD" cx="480.094" cy="270.531" r="1.531"/><ellipse transform="matrix(-.5 .866 -.866 -.5 973.003 3.251)" opacity=".06" fill="#76AF9F" cx="485.562" cy="282.625" rx="6.25" ry="4.5"/><ellipse transform="matrix(-.5 .866 -.866 -.5 973.712 3.167)" opacity=".06" fill="#76AF9F" cx="485.941" cy="282.826" rx="5.656" ry="4.071"/><ellipse transform="matrix(-.5 .866 -.866 -.5 974.713 3.212)" opacity=".06" fill="#76AF9F" cx="486.429" cy="283.125" rx="4.861" ry="3.5"/><ellipse transform="matrix(-.5 .866 -.866 -.5 975.555 3.193)" opacity=".06" fill="#76AF9F" cx="486.855" cy="283.34" rx="4.198" ry="3.022"/><ellipse transform="matrix(-.5 .866 -.866 -.5 976.415 3.329)" opacity=".06" fill="#76AF9F" cx="487.246" cy="283.646" rx="3.516" ry="2.531"/><ellipse transform="matrix(-.5 .866 -.866 -.5 977.209 3.398)" opacity=".06" fill="#76AF9F" cx="487.623" cy="283.894" rx="2.89" ry="2.081"/><ellipse transform="matrix(-.5 .866 -.866 -.5 978.148 3.33)" opacity=".06" fill="#76AF9F" cx="488.112" cy="284.146" rx="2.126" ry="1.531"/><ellipse transform="matrix(-1 -.001 .001 -1 959.118 575.011)" opacity=".07" fill="#568CC7" cx="479.75" cy="287.187" rx="6.25" ry="3"/><ellipse transform="matrix(-1 -.001 .001 -1 959.202 575.603)" opacity=".07" fill="#568CC7" cx="479.766" cy="287.527" rx="5.543" ry="2.66"/><ellipse transform="matrix(-1 -.001 .001 -1 959.152 576.287)" opacity=".07" fill="#568CC7" cx="479.75" cy="287.854" rx="4.861" ry="2.333"/><ellipse transform="matrix(-1 -.001 .001 -1 959.036 577.024)" opacity=".07" fill="#568CC7" cx="479.705" cy="288.201" rx="4.14" ry="1.989"/><ellipse opacity=".07" fill="#568CC7" cx="479.705" cy="288.5" rx="3.516" ry="1.688"/><path opacity=".07" fill="#568CC7" d="M477.078 288.854c0-.734 1.242-1.33 2.773-1.326 1.532.002 2.77.6 2.769 1.334 0 .734-1.243 1.329-2.771 1.328-1.534-.004-2.772-.602-2.771-1.336z"/><ellipse opacity=".07" fill="#568CC7" cx="479.704" cy="289.167" rx="2.126" ry="1.021"/><circle fill="#665778" cx="480.094" cy="279.906" r=".719"/><path fill="#815F55" d="M501.062 267.125c0 1.104-.896 2-2 2h-5.562c-1.104 0-2-.896-2-2v-5.438c0-1.104.896-2 2-2h5.562c1.104 0 2 .896 2 2v5.438z"/><path fill="#070200" d="M501.062 266.562c0 1.104-.896 2-2 2h-5.562c-1.104 0-2-.896-2-2v-5.438c0-1.104.896-2 2-2h5.562c1.104 0 2 .896 2 2v5.438z"/><path fill="#192123" d="M500.562 266.278c0 .989-.802 1.791-1.791 1.791h-4.98c-.989 0-1.791-.802-1.791-1.791v-4.869c0-.989.802-1.791 1.791-1.791h4.98c.989 0 1.791.802 1.791 1.791v4.869z"/><linearGradient id="f" gradientUnits="userSpaceOnUse" x1="493.206" y1="260.769" x2="499.357" y2="266.92"><stop offset="0" stop-color="#061115"/><stop offset=".208" stop-color="#0B181B"/><stop offset=".504" stop-color="#192A2A"/><stop offset=".851" stop-color="#2F4943"/><stop offset="1" stop-color="#3A5850"/></linearGradient><path fill="url(#f)" d="M499.812 265.852c0 .816-.661 1.477-1.478 1.477h-4.107c-.816 0-1.478-.661-1.478-1.477v-4.016c0-.815.661-1.477 1.478-1.477h4.107c.816 0 1.478.661 1.478 1.477v4.016z"/><circle fill="#180D13" cx="496.344" cy="263.844" r="2.656"/><linearGradient id="g" gradientUnits="userSpaceOnUse" x1="496.344" y1="266.125" x2="496.344" y2="261.563"><stop offset="0" stop-color="#302536"/><stop offset=".482" stop-color="#2B283D"/><stop offset="1" stop-color="#212F4A"/></linearGradient><circle fill="url(#g)" cx="496.344" cy="263.844" r="2.281"/><circle opacity=".25" fill="#fff" cx="497.417" cy="262.25" r=".541"/><circle opacity=".25" fill="#fff" cx="498.25" cy="262.833" r=".416"/><linearGradient id="h" gradientUnits="userSpaceOnUse" x1="460.475" y1="270.928" x2="460.475" y2="256.007"><stop offset="0" stop-color="#822C37"/><stop offset=".004" stop-color="#872C38"/><stop offset=".035" stop-color="#A62D3F"/><stop offset=".07" stop-color="#C22F45"/><stop offset=".109" stop-color="#D82F4A"/><stop offset=".155" stop-color="#E9304E"/><stop offset=".212" stop-color="#F43150"/><stop offset=".291" stop-color="#FB3152"/><stop offset=".512" stop-color="#FD3152"/><stop offset=".707" stop-color="#C62F46"/><stop offset=".901" stop-color="#952D3B"/><stop offset=".997" stop-color="#822C37"/></linearGradient><path fill="url(#h)" d="M461.702 256.007c-.881.041-1.713.273-2.454.656v14.264h2.454v-14.92z"/><linearGradient id="i" gradientUnits="userSpaceOnUse" x1="462.906" y1="270.938" x2="462.906" y2="256"><stop offset="0" stop-color="#A06A2A"/><stop offset=".013" stop-color="#A9762C"/><stop offset=".049" stop-color="#BE9131"/><stop offset=".09" stop-color="#CEA736"/><stop offset=".138" stop-color="#DBB839"/><stop offset=".198" stop-color="#E4C33B"/><stop offset=".281" stop-color="#EACA3D"/><stop offset=".512" stop-color="#EBCC3D"/><stop offset=".643" stop-color="#D4AE37"/><stop offset=".88" stop-color="#AF7D2E"/><stop offset=".997" stop-color="#A06A2A"/></linearGradient><rect x="461.672" y="256" fill="url(#i)" width="2.469" height="14.938"/><linearGradient id="j" gradientUnits="userSpaceOnUse" x1="465.364" y1="270.938" x2="465.364" y2="256"><stop offset="0" stop-color="#3C694A"/><stop offset=".009" stop-color="#407150"/><stop offset=".045" stop-color="#4D8C65"/><stop offset=".087" stop-color="#58A275"/><stop offset=".135" stop-color="#60B382"/><stop offset=".195" stop-color="#66BE8B"/><stop offset=".279" stop-color="#69C591"/><stop offset=".512" stop-color="#6AC792"/><stop offset=".63" stop-color="#5DAD7E"/><stop offset=".876" stop-color="#457C59"/><stop offset=".997" stop-color="#3C694A"/></linearGradient><rect x="464.13" y="256" fill="url(#j)" width="2.469" height="14.938"/><linearGradient id="k" gradientUnits="userSpaceOnUse" x1="467.823" y1="270.938" x2="467.823" y2="256"><stop offset="0" stop-color="#2456D3"/><stop offset=".024" stop-color="#2B60DC"/><stop offset=".079" stop-color="#3871EB"/><stop offset=".148" stop-color="#417CF6"/><stop offset=".244" stop-color="#4683FC"/><stop offset=".512" stop-color="#4785FE"/><stop offset=".776" stop-color="#3269E4"/><stop offset=".997" stop-color="#2456D3"/></linearGradient><rect x="466.589" y="256" fill="url(#k)" width="2.469" height="14.938"/></svg>