<svg xmlns="http://www.w3.org/2000/svg" viewBox="456 256 48 48" enable-background="new 456 256 48 48"><linearGradient id="a" gradientUnits="userSpaceOnUse" x1="351.366" y1="312.875" x2="351.366" y2="301.375" gradientTransform="matrix(4.167 0 0 -4.167 -983.994 1559.654)"><stop offset="0" stop-color="#303030"/><stop offset="1" stop-color="#1A1A1A"/></linearGradient><path fill="url(#a)" d="M504 297.928c0 3.307-2.683 5.989-5.989 5.989h-35.938c-3.308 0-5.99-2.683-5.99-5.989v-35.938c0-3.307 2.682-5.99 5.99-5.99h35.938c3.307 0 5.989 2.683 5.989 5.99v35.938z"/><path d="M476.648 266.911s-7.688 4.77-2.451 9.983c5.237 5.214 9.47 3.661 8.355 7.21-1.113 3.55-4.232 5.437-1.225 7.211 3.009 1.774 9.358.109 11.922-8.986 2.563-9.096-7.13-20.299-16.601-15.418z"/><path d="M470.409 280.443s-3.008.666-4.011-1.774c-1.003-2.441 1.448-4.215 3.565-2.996 2.118 1.221 2.229 4.66.446 4.77z"/><path d="M471.412 284.405s-2.786 3.462.445 5.693c3.232 2.232 6.128.225 6.351-2.009.224-2.233.334-3.796-2.005-5.022-2.34-1.228-4.233.334-4.791 1.338z"/><path fill="#fff" d="M476.648 268.915s-7.688 4.716-2.451 9.872 9.47 3.619 8.355 7.13c-1.113 3.51-4.232 5.375-1.225 7.13 3.009 1.755 9.358.108 11.922-8.886 2.563-8.994-7.13-20.073-16.601-15.246z"/><path fill="#fff" d="M470.409 282.296s-3.008.659-4.011-1.754c-1.003-2.414 1.448-4.168 3.565-2.962 2.118 1.206 2.229 4.606.446 4.716z"/><path fill="#fff" d="M471.412 286.244s-2.786 3.401.445 5.596c3.232 2.193 6.128.22 6.351-1.975.224-2.193.334-3.731-2.005-4.936-2.34-1.206-4.233.329-4.791 1.315z"/></svg>