<svg xmlns="http://www.w3.org/2000/svg" viewBox="456 256 48 48" enable-background="new 456 256 48 48"><linearGradient id="a" gradientUnits="userSpaceOnUse" x1="351.366" y1="312.875" x2="351.366" y2="301.375" gradientTransform="matrix(4.167 0 0 -4.167 -983.994 1559.654)"><stop offset="0" stop-color="#D2AD5C"/><stop offset="1" stop-color="#A07E42"/></linearGradient><path fill="url(#a)" d="M504 297.928c0 3.307-2.683 5.989-5.989 5.989h-35.938c-3.308 0-5.99-2.683-5.99-5.989v-35.938c0-3.307 2.682-5.99 5.99-5.99h35.938c3.307 0 5.989 2.683 5.989 5.99v35.938z"/><linearGradient id="b" gradientUnits="userSpaceOnUse" x1="479.769" y1="266.181" x2="479.769" y2="297.724"><stop offset="0" stop-color="#A07E42"/><stop offset="1" stop-color="#8C6B37"/></linearGradient><path fill="url(#b)" d="M481.114 294.668c-5.739.654-10.202-.92-13.531-3.673-3.019-2.497-7.905-10.865-.896-19.373 7.792-9.457 29.343-6.359 29.749 7.517.408 13.875-15.322 18.584-15.322 18.584v-3.055zm-11.332-7.435h2.537v-7.887c0-.404.059-.809.206-1.161.413-1.188 1.594-2.376 3.216-2.376 1.977 0 2.979 1.513 2.979 3.592v7.832h2.538v-8.076c0-.432.088-.863.206-1.188.441-1.162 1.592-2.161 3.067-2.161 2.096 0 3.098 1.513 3.098 4.024v7.4h2.538v-7.697c0-4.538-2.805-5.673-4.691-5.673-1.358 0-2.302.325-3.155.919-.591.405-1.153.972-1.594 1.701h-.06c-.619-1.539-2.093-2.621-4.042-2.621-2.36 0-3.688 1.163-4.484 2.404h-.088l-.118-2.106h-2.271c.088 1.08.118 2.187.118 3.538v9.536z"/><linearGradient id="c" gradientUnits="userSpaceOnUse" x1="479.769" y1="265.181" x2="479.769" y2="296.307"><stop offset="0" stop-color="#fff"/><stop offset="1" stop-color="#E8E8E8"/></linearGradient><path fill="url(#c)" d="M481.114 293.291c-5.739.646-10.202-.907-13.531-3.624-3.019-2.464-7.905-10.722-.896-19.116 7.792-9.332 29.343-6.275 29.749 7.417.408 13.691-15.322 18.339-15.322 18.339v-3.016zm-11.332-7.429h2.537v-7.783c0-.4.059-.799.206-1.146.413-1.173 1.594-2.345 3.216-2.345 1.977 0 2.979 1.493 2.979 3.544v7.729h2.538v-7.97c0-.426.088-.852.206-1.171.441-1.147 1.592-2.133 3.067-2.133 2.096 0 3.098 1.493 3.098 3.971v7.303h2.538v-7.596c0-4.478-2.805-5.598-4.691-5.598-1.358 0-2.302.32-3.155.907-.591.399-1.153.959-1.594 1.679h-.06c-.619-1.518-2.093-2.586-4.042-2.586-2.36 0-3.688 1.147-4.484 2.373h-.088l-.118-2.078h-2.271c.088 1.066.118 2.158.118 3.491v9.409z"/></svg>