<svg xmlns="http://www.w3.org/2000/svg" viewBox="0 0 48 48" enable-background="new 0 0 48 48"><linearGradient id="a" gradientUnits="userSpaceOnUse" x1="24" x2="24" y2="48.001"><stop offset="0" stop-color="#fff"/><stop offset="1" stop-color="#EAEAEA"/></linearGradient><path fill-rule="evenodd" clip-rule="evenodd" fill="url(#a)" d="M48 42c0 3.313-2.687 6-6 6h-36c-3.313 0-6-2.687-6-6v-36c0-3.313 2.687-6 6-6h36c3.313 0 6 2.687 6 6v36z"/><path fill-rule="evenodd" clip-rule="evenodd" fill="#EAEAEA" d="M28.296 29.584s1.567 5.225 6.165 4.18c4.599-1.045 4.912-6.897 2.195-9.928-2.718-3.031-9.719 1.776-8.36 5.748z"/><path fill-rule="evenodd" clip-rule="evenodd" fill="#CECECE" d="M20.574 28.202s-1.313 2.846 1.969 5.252c3.283 2.407 7.331 5.033 5.581-4.595-1.752-9.629-7.44-1.533-7.55-.657z"/><path fill-rule="evenodd" clip-rule="evenodd" fill="#EAEAEA" d="M35.924 11.086s-2.299-1.567-6.165 2.404c-3.867 3.971-5.748 6.166-5.539 7.733.209 1.568 3.554 11.496 8.778 7.629 5.226-3.867 8.465-13.794 2.926-17.766z"/><path fill-rule="evenodd" clip-rule="evenodd" fill="#EAEAEA" d="M24.429 19.865s-12.958-9.51-15.466-4.18 15.78 19.646 19.125 13.168c-.001 0-.315-4.808-3.659-8.988z"/><linearGradient id="b" gradientUnits="userSpaceOnUse" x1="33.254" y1="24.681" x2="33.254" y2="35.701"><stop offset=".472" stop-color="#F0E13F"/><stop offset="1" stop-color="#E2C033"/></linearGradient><path fill-rule="evenodd" clip-rule="evenodd" fill="url(#b)" d="M28.296 31.383s1.567 5.225 6.165 4.18c4.599-1.045 4.912-6.897 2.195-9.928-2.718-3.031-9.719 1.776-8.36 5.748z"/><linearGradient id="c" gradientUnits="userSpaceOnUse" x1="24.43" y1="25.985" x2="24.43" y2="37.5"><stop offset=".472" stop-color="#4E9F00"/><stop offset="1" stop-color="#438200"/></linearGradient><path fill-rule="evenodd" clip-rule="evenodd" fill="url(#c)" d="M20.574 30.001s-1.313 2.846 1.969 5.252c3.283 2.407 7.331 5.033 5.581-4.595-1.752-9.629-7.44-1.533-7.55-.657z"/><linearGradient id="d" gradientUnits="userSpaceOnUse" x1="31.508" y1="12.581" x2="31.508" y2="31.539"><stop offset="0" stop-color="#FF7D3F"/><stop offset="1" stop-color="#EA6632"/></linearGradient><path fill-rule="evenodd" clip-rule="evenodd" fill="url(#d)" d="M35.924 12.885s-2.299-1.567-6.165 2.404c-3.867 3.971-5.748 6.166-5.539 7.733.209 1.568 3.554 11.496 8.778 7.629 5.226-3.867 8.465-13.795 2.926-17.766z"/><path clip-rule="evenodd" d="M28.296 31.383s1.567 5.225 6.165 4.18c4.599-1.045 4.912-6.897 2.195-9.928-2.718-3.031-9.719 1.776-8.36 5.748z" fill="none"/><linearGradient id="e" gradientUnits="userSpaceOnUse" x1="18.407" y1="15.861" x2="18.407" y2="32.303"><stop offset="0" stop-color="#4BD0EF"/><stop offset="1" stop-color="#29AAE1"/></linearGradient><path fill-rule="evenodd" clip-rule="evenodd" fill="url(#e)" d="M24.429 21.664s-12.958-9.51-15.466-4.18 15.78 19.646 19.125 13.168c-.001-.001-.315-4.808-3.659-8.988z"/></svg>