<svg xmlns="http://www.w3.org/2000/svg" viewBox="456 256 48 48" enable-background="new 456 256 48 48"><linearGradient id="a" gradientUnits="userSpaceOnUse" x1="351.366" y1="312.875" x2="351.366" y2="301.375" gradientTransform="matrix(4.167 0 0 -4.167 -983.994 1559.654)"><stop offset="0" stop-color="#fff"/><stop offset="1" stop-color="#EAEAEA"/></linearGradient><path fill="url(#a)" d="M504 297.928c0 3.307-2.683 5.989-5.989 5.989h-35.938c-3.308 0-5.99-2.683-5.99-5.989v-35.938c0-3.307 2.682-5.99 5.99-5.99h35.938c3.307 0 5.989 2.683 5.989 5.99v35.938z"/><path fill="#DBDBDB" d="M480.146 268.968c5.39 0 9.761 4.371 9.761 9.761s-4.371 9.76-9.761 9.76c-5.391 0-9.761-4.369-9.761-9.76s4.37-9.761 9.761-9.761m0-4.843c-8.053 0-14.604 6.551-14.604 14.604 0 8.052 6.551 14.604 14.604 14.604 8.052 0 14.604-6.553 14.604-14.604 0-8.053-6.552-14.604-14.604-14.604z"/><linearGradient id="b" gradientUnits="userSpaceOnUse" x1="480.146" y1="265.375" x2="480.146" y2="294.334"><stop offset="0" stop-color="#E358BA"/><stop offset=".288" stop-color="#D44DB1"/><stop offset=".839" stop-color="#AE309A"/><stop offset="1" stop-color="#A12693"/></linearGradient><path fill="url(#b)" d="M480.146 270.177c5.344 0 9.677 4.333 9.677 9.677 0 5.345-4.333 9.677-9.677 9.677-5.345 0-9.678-4.332-9.678-9.677.001-5.344 4.334-9.677 9.678-9.677m0-4.802c-7.984 0-14.479 6.495-14.479 14.479 0 7.983 6.495 14.479 14.479 14.479 7.982 0 14.479-6.496 14.479-14.479 0-7.983-6.496-14.479-14.479-14.479z"/></svg>