<svg xmlns="http://www.w3.org/2000/svg" viewBox="456 256 48 48" enable-background="new 456 256 48 48"><linearGradient id="a" gradientUnits="userSpaceOnUse" x1="351.366" y1="312.875" x2="351.366" y2="301.375" gradientTransform="matrix(4.167 0 0 -4.167 -983.994 1559.654)"><stop offset="0" stop-color="#fff"/><stop offset="1" stop-color="#E4E4E4"/></linearGradient><path fill="url(#a)" d="M504 297.928c0 3.307-2.683 5.989-5.989 5.989h-35.938c-3.308 0-5.99-2.683-5.99-5.989v-35.938c0-3.307 2.682-5.99 5.99-5.99h35.938c3.307 0 5.989 2.683 5.989 5.99v35.938z"/><g fill-rule="evenodd" clip-rule="evenodd" fill="#E4E4E4"><path d="M494.83 286.151c-.751 1.11-1.352 2.149-2.103 3.082-2.626 3.257-6.063 5.306-10.38 5.919-2.791.396-5.499.044-8.088-1.029-.18-.074-.395-.329-.395-.499.006-2.425.047-4.851.082-7.274l.055-.198c6.863-.001 13.728-.001 20.829-.001z"/><path d="M478.682 269.505l-14.363 12.355c-.088-.521-.187-.929-.222-1.341-.35-4.167.512-8.062 2.991-11.571 1.333-1.887 3.011-3.452 5.049-4.663.243-.144.432-.26.713-.01 1.896 1.688 3.81 3.36 5.715 5.039l.117.191z"/><path d="M490.602 283.963v-18.058c.585.584 1.147 1.087 1.635 1.647 2.461 2.823 3.804 6.067 4.119 9.715.182 2.109-.056 4.164-.608 6.202-.096.353-.248.511-.675.503-1.446-.028-2.89-.009-4.471-.009z"/><path d="M475.076 262.803c1.212-.242 2.244-.524 3.295-.644 3.26-.368 6.347.195 9.218 1.719.181.097.383.342.389.525.104 3.106.18 6.213.259 9.32l-.024.38c-4.379-3.766-8.679-7.463-13.137-11.3z"/><path d="M470.854 292.327c-.693-.613-1.372-1.162-1.987-1.768-1.634-1.606-2.848-3.469-3.653-5.562-.072-.19-.037-.536.1-.663 1.763-1.626 3.553-3.229 5.337-4.835l.203-.07v12.898z"/></g><g fill-rule="evenodd" clip-rule="evenodd"><path fill="#2D961E" d="M494.83 288.123c-.751 1.11-1.352 2.149-2.103 3.082-2.626 3.257-6.063 5.306-10.38 5.919-2.791.396-5.499.045-8.088-1.029-.18-.074-.395-.329-.395-.499.006-2.424.047-4.851.082-7.274l.055-.198c6.863-.001 13.728-.001 20.829-.001z"/><path fill="#854C9E" d="M478.682 271.477c-4.755 4.09-9.514 8.183-14.363 12.355-.088-.521-.187-.929-.222-1.341-.35-4.167.512-8.062 2.991-11.571 1.333-1.886 3.011-3.451 5.049-4.662.243-.144.432-.26.713-.01 1.896 1.688 3.81 3.359 5.715 5.039l.117.19z"/><path fill="#FB670D" d="M490.602 285.935v-18.057c.585.584 1.147 1.087 1.635 1.647 2.461 2.823 3.804 6.066 4.119 9.715.182 2.11-.056 4.165-.608 6.202-.096.353-.248.512-.675.504-1.446-.03-2.89-.011-4.471-.011z"/><path fill="#F41B2B" d="M475.076 264.775c1.212-.242 2.244-.524 3.295-.644 3.26-.369 6.347.195 9.218 1.719.181.097.383.342.389.524.104 3.106.18 6.214.259 9.32l-.024.38c-4.379-3.764-8.679-7.463-13.137-11.299z"/><path fill="#184395" d="M470.854 294.299c-.693-.613-1.372-1.162-1.987-1.768-1.634-1.606-2.848-3.469-3.653-5.562-.072-.189-.037-.535.1-.663 1.763-1.626 3.553-3.229 5.337-4.835l.203-.07v12.898z"/></g></svg>