<svg xmlns="http://www.w3.org/2000/svg" viewBox="0 0 44 44" enable-background="new 0 0 44 44"><linearGradient id="a" gradientUnits="userSpaceOnUse" y1="39.25" x2="11" y2="39.25"><stop offset="0" stop-color="#519071"/><stop offset="1" stop-color="#7EE0B1"/></linearGradient><path fill="url(#a)" d="M11 44h-5.5c-3.037 0-5.5-2.463-5.5-5.5v-4h11v9.5"/><path fill="#4BAFAD" d="M23 44h-12.25v-9.5h12.25v9.5z"/><path fill="#E14052" d="M22 34.5h11.062v9.5h-11.062v-9.5z"/><linearGradient id="b" gradientUnits="userSpaceOnUse" x1="32.938" y1="39.25" x2="44" y2="39.25"><stop offset="0" stop-color="#ECAF45"/><stop offset="1" stop-color="#B58435"/></linearGradient><path fill="url(#b)" d="M32.938 34.5h11.062v4c0 3.037-2.463 5.5-5.5 5.5h-5.562v-9.5z"/><linearGradient id="c" gradientUnits="userSpaceOnUse" x1="333.772" y1="-362.954" x2="333.772" y2="-406.59" gradientTransform="matrix(.917 0 0 -.917 -283.958 -332.708)"><stop offset="0" stop-color="#fff"/><stop offset="1" stop-color="#EAEAEA"/></linearGradient><path fill="url(#c)" d="M44 34.5c0 3.037-2.463 5.5-5.5 5.5h-33c-3.037 0-5.5-2.463-5.5-5.5v-29c0-3.037 2.463-5.5 5.5-5.5h33c3.037 0 5.5 2.463 5.5 5.5v29z"/><path fill-rule="evenodd" clip-rule="evenodd" fill="#EAEAEA" d="M22.445 8.152c3.247 0 6.495-.003 9.742 0 1.548.002 2.435.865 2.427 2.401-.017 2.759.129 5.534-.121 8.272-.832 9.1-11.124 13.984-18.758 8.945-3.423-2.26-5.346-5.464-5.454-9.62-.068-2.596-.037-5.195-.019-7.792.008-1.347.901-2.196 2.28-2.201 3.3-.011 6.602-.003 9.903-.005zm-5.586 6.08c-.962.104-1.516.439-1.797 1.137-.299.743-.088 1.394.462 1.922 1.872 1.798 3.747 3.593 5.644 5.366.829.772 1.707.762 2.528-.01 1.836-1.719 3.658-3.453 5.47-5.198.917-.884 1.006-1.901.278-2.639-.771-.781-1.756-.718-2.714.189-1.217 1.153-2.457 2.284-3.623 3.486-.538.551-.854.483-1.36-.026-1.218-1.229-2.478-2.417-3.761-3.577-.359-.324-.856-.498-1.127-.65z"/><path fill-rule="evenodd" clip-rule="evenodd" fill="#ED4054" d="M22.445 10.152c3.247 0 6.495-.003 9.742 0 1.548.002 2.435.865 2.427 2.401-.017 2.759.129 5.534-.121 8.272-.832 9.1-11.124 13.984-18.758 8.945-3.423-2.26-5.346-5.464-5.454-9.62-.068-2.596-.037-5.195-.019-7.792.008-1.347.901-2.196 2.28-2.201 3.3-.011 6.602-.003 9.903-.005zm-5.586 6.08c-.962.104-1.516.439-1.797 1.137-.299.743-.088 1.394.462 1.922 1.872 1.798 3.747 3.593 5.644 5.366.829.772 1.707.762 2.528-.01 1.836-1.719 3.658-3.453 5.47-5.198.917-.884 1.006-1.901.278-2.639-.771-.781-1.756-.718-2.714.189-1.217 1.153-2.457 2.284-3.623 3.486-.538.551-.854.483-1.36-.026-1.218-1.229-2.478-2.417-3.761-3.577-.359-.324-.856-.498-1.127-.65z"/></svg>