<svg xmlns="http://www.w3.org/2000/svg" viewBox="0 0 48 48" enable-background="new 0 0 48 48"><linearGradient id="a" gradientUnits="userSpaceOnUse" x1="24" x2="24" y2="48.001"><stop offset="0" stop-color="#21BFF5"/><stop offset="1" stop-color="#008AC4"/></linearGradient><path fill-rule="evenodd" clip-rule="evenodd" fill="url(#a)" d="M48 42c0 3.313-2.687 6-6 6h-36c-3.313 0-6-2.687-6-6v-36c0-3.313 2.687-6 6-6h36c3.313 0 6 2.687 6 6v36z"/><path fill-rule="evenodd" clip-rule="evenodd" fill="#2491C0" d="M26 9.395v7.625s-5.051-1.207-7.974 2.542c-2.922 3.749.629 9.728 6.216 8.07 5.734-1.702 4.758-6.228 4.758-6.927v-10.293s5.544 4.727 9.598 4.829c2.945.074 3.235.661 2.687 2.097-.612 1.608-2.495 3.367-4.528 3.367 0 0 1.302 8.579-5.497 12.772-6.796 4.193-15.741 2.352-19.299-2.732-3.558-5.083-3.727-13.407.975-17.6 4.701-4.196 9.064-4.577 13.064-3.75z"/><path fill-rule="evenodd" clip-rule="evenodd" fill="#fff" d="M26 11.369v7.625s-5.051-1.208-7.974 2.542c-2.922 3.749.629 9.729 6.216 8.07 5.734-1.702 4.758-6.228 4.758-6.927v-10.293s5.544 4.727 9.598 4.829c2.945.074 3.235.661 2.687 2.097-.612 1.608-2.495 3.367-4.528 3.367 0 0 1.302 8.579-5.497 12.772-6.796 4.193-15.741 2.35-19.299-2.732-3.558-5.085-3.727-13.407.975-17.601 4.701-4.194 9.064-4.575 13.064-3.749z"/></svg>