<svg xmlns="http://www.w3.org/2000/svg" viewBox="456 256 48 48" enable-background="new 456 256 48 48"><linearGradient id="a" gradientUnits="userSpaceOnUse" x1="351.366" y1="312.875" x2="351.366" y2="301.375" gradientTransform="matrix(4.167 0 0 -4.167 -983.994 1559.654)"><stop offset="0" stop-color="#fff"/><stop offset="1" stop-color="#EAEAEA"/></linearGradient><path fill="url(#a)" d="M504 297.928c0 3.307-2.683 5.989-5.989 5.989h-35.938c-3.308 0-5.99-2.683-5.99-5.989v-35.938c0-3.307 2.682-5.99 5.99-5.99h35.938c3.307 0 5.989 2.683 5.989 5.99v35.938z"/><path fill="#DBDBDB" d="M480.44 285.698c-1.552-1.789-2.493-4.138-2.493-6.707 0-5.024 3.597-9.198 8.325-10.026 0 .001 2.28 12.061-5.832 16.733z"/><path fill="#DBDBDB" d="M495.547 285.708c1.556-1.792 2.499-4.143 2.499-6.716 0-5.045-3.625-9.232-8.383-10.036 0 0-2.039 12.69 5.884 16.752z"/><path fill="#DBDBDB" d="M483.185 287.926c1.428.792 3.068 1.24 4.812 1.24 1.741 0 3.38-.447 4.809-1.236 0 0-4.412-2.445-4.742-6.596-.001 0-.372 3.612-4.879 6.592z"/><path fill="#DBDBDB" d="M480.457 285.698c1.552-1.789 2.492-4.138 2.492-6.707 0-5.024-3.596-9.198-8.324-10.026 0 .001-2.28 12.061 5.832 16.733z"/><path fill="#DBDBDB" d="M465.352 285.708c-1.557-1.792-2.5-4.143-2.5-6.716 0-5.045 3.626-9.232 8.383-10.036-.001 0 2.037 12.69-5.883 16.752z"/><path fill="#DBDBDB" d="M477.713 287.926c-1.429.792-3.069 1.24-4.813 1.24-1.742 0-3.38-.447-4.808-1.236 0 0 4.411-2.445 4.742-6.596 0 0 .371 3.612 4.879 6.592z"/><linearGradient id="b" gradientUnits="userSpaceOnUse" x1="482.258" y1="270.216" x2="482.258" y2="286.742"><stop offset="0" stop-color="#0D60AA"/><stop offset=".315" stop-color="#0F5AA3"/><stop offset=".757" stop-color="#154991"/><stop offset="1" stop-color="#193D84"/></linearGradient><path fill="url(#b)" d="M480.44 286.741c-1.552-1.767-2.493-4.087-2.493-6.624 0-4.962 3.597-9.084 8.325-9.902 0 .001 2.28 11.912-5.832 16.526z"/><linearGradient id="c" gradientUnits="userSpaceOnUse" x1="493.736" y1="270.206" x2="493.736" y2="286.752"><stop offset="0" stop-color="#0D60AA"/><stop offset=".315" stop-color="#0F5AA3"/><stop offset=".757" stop-color="#154991"/><stop offset="1" stop-color="#193D84"/></linearGradient><path fill="url(#c)" d="M495.547 286.751c1.556-1.77 2.499-4.092 2.499-6.633 0-4.982-3.625-9.118-8.383-9.912 0 0-2.039 12.533 5.884 16.545z"/><linearGradient id="d" gradientUnits="userSpaceOnUse" x1="487.995" y1="282.431" x2="487.995" y2="290.166"><stop offset="0" stop-color="#0D60AA"/><stop offset=".315" stop-color="#0F5AA3"/><stop offset=".757" stop-color="#154991"/><stop offset="1" stop-color="#193D84"/></linearGradient><path fill="url(#d)" d="M483.185 288.941c1.428.782 3.068 1.225 4.812 1.225 1.741 0 3.38-.441 4.809-1.221 0 0-4.412-2.415-4.742-6.515-.001.001-.372 3.568-4.879 6.511z"/><circle fill="#EAEAEA" cx="165.773" cy="229.752" r="109.375"/><linearGradient id="e" gradientUnits="userSpaceOnUse" x1="478.639" y1="270.216" x2="478.639" y2="286.742"><stop offset="0" stop-color="#0D60AA"/><stop offset=".315" stop-color="#0F5AA3"/><stop offset=".757" stop-color="#154991"/><stop offset="1" stop-color="#193D84"/></linearGradient><path fill="url(#e)" d="M480.457 286.741c1.552-1.767 2.492-4.087 2.492-6.624 0-4.962-3.596-9.084-8.324-9.902 0 .001-2.28 11.912 5.832 16.526z"/><linearGradient id="f" gradientUnits="userSpaceOnUse" x1="480.533" y1="273.564" x2="480.533" y2="286.742"><stop offset="0" stop-color="#E53B31"/><stop offset=".294" stop-color="#DE3B31"/><stop offset=".709" stop-color="#CC3B31"/><stop offset="1" stop-color="#BB3B31"/></linearGradient><path fill="url(#f)" d="M480.457 286.741c1.552-1.767 2.492-4.087 2.492-6.624 0-2.504-.916-4.794-2.431-6.554.001.001-5.363 6.679-.061 13.178z"/><linearGradient id="g" gradientUnits="userSpaceOnUse" x1="467.16" y1="270.206" x2="467.16" y2="286.752"><stop offset="0" stop-color="#0D60AA"/><stop offset=".315" stop-color="#0F5AA3"/><stop offset=".757" stop-color="#154991"/><stop offset="1" stop-color="#193D84"/></linearGradient><path fill="url(#g)" d="M465.352 286.751c-1.557-1.77-2.5-4.092-2.5-6.633 0-4.982 3.626-9.118 8.383-9.912-.001 0 2.037 12.533-5.883 16.545z"/><linearGradient id="h" gradientUnits="userSpaceOnUse" x1="472.903" y1="282.431" x2="472.903" y2="290.166"><stop offset="0" stop-color="#0D60AA"/><stop offset=".315" stop-color="#0F5AA3"/><stop offset=".757" stop-color="#154991"/><stop offset="1" stop-color="#193D84"/></linearGradient><path fill="url(#h)" d="M477.713 288.941c-1.429.782-3.069 1.225-4.813 1.225-1.742 0-3.38-.441-4.808-1.221 0 0 4.411-2.415 4.742-6.515 0 .001.371 3.568 4.879 6.511z"/></svg>