<svg xmlns="http://www.w3.org/2000/svg" viewBox="0 0 48 48" enable-background="new 0 0 48 48"><linearGradient id="a" gradientUnits="userSpaceOnUse" x1="24" x2="24" y2="48.001"><stop offset="0" stop-color="#E60093"/><stop offset="1" stop-color="#D20050"/></linearGradient><path fill-rule="evenodd" clip-rule="evenodd" fill="url(#a)" d="M48 42c0 3.313-2.687 6-6 6h-36c-3.313 0-6-2.687-6-6v-36c0-3.313 2.687-6 6-6h36c3.313 0 6 2.687 6 6v36z"/><path fill="#B50063" d="M29.146 10.817c.74 0 1.497.147 2.258.485 5.785 2.571 3.6 9.127.771 11.955-2.828 2.829-4.499 7.328-3.728 10.027 0 0-11.956-1.285-14.784-9.513-2.381-6.928 1.801-9.663 4.639-9.664.532 0 1.017.096 1.403.279 0 0-1.028 1.8.386 2.829.001.001 4.17-6.398 9.055-6.398m0-3c-3.304 0-6.169 1.898-8.228 3.826-.769-.35-1.671-.535-2.615-.535-2.608 0-5.181 1.335-6.715 3.485-1.309 1.834-2.504 5.085-.761 10.154 3.409 9.917 16.734 11.459 17.301 11.52l4.429.477-1.224-4.283c-.373-1.306.596-4.713 2.965-7.082 2.321-2.321 4.332-6.452 3.59-10.449-.526-2.832-2.396-5.094-5.266-6.369-1.109-.493-2.279-.744-3.476-.744z"/><path fill="#fff" d="M29.146 12.817c.74 0 1.497.147 2.258.485 5.785 2.571 3.6 9.127.771 11.955-2.828 2.829-4.499 7.328-3.728 10.027 0 0-11.956-1.285-14.784-9.513-2.381-6.928 1.801-9.663 4.639-9.664.532 0 1.017.096 1.403.279 0 0-1.028 1.8.386 2.829.001.001 4.17-6.398 9.055-6.398m0-3c-3.304 0-6.169 1.898-8.228 3.826-.769-.35-1.671-.535-2.615-.535-2.608 0-5.181 1.335-6.715 3.485-1.309 1.834-2.504 5.085-.761 10.154 3.409 9.917 16.734 11.459 17.301 11.52l4.429.477-1.224-4.283c-.373-1.306.596-4.713 2.965-7.082 2.321-2.321 4.332-6.452 3.59-10.449-.526-2.832-2.396-5.094-5.266-6.369-1.109-.493-2.279-.744-3.476-.744z"/></svg>