<svg xmlns="http://www.w3.org/2000/svg" viewBox="0 0 48 48" enable-background="new 0 0 48 48"><linearGradient id="a" gradientUnits="userSpaceOnUse" x1="24" x2="24" y2="48.001"><stop offset="0" stop-color="#4BD0EF"/><stop offset="1" stop-color="#29AAE1"/></linearGradient><path fill-rule="evenodd" clip-rule="evenodd" fill="url(#a)" d="M48 42c0 3.313-2.687 6-6 6h-36c-3.313 0-6-2.687-6-6v-36c0-3.313 2.687-6 6-6h36c3.313 0 6 2.687 6 6v36z"/><circle fill-rule="evenodd" clip-rule="evenodd" fill="#29AAE1" cx="24.639" cy="22.507" r="14.729"/><circle fill-rule="evenodd" clip-rule="evenodd" fill="#29AAE1" cx="30.959" cy="26.924" r="9.311"/><circle fill-rule="evenodd" clip-rule="evenodd" fill="#29AAE1" cx="17.416" cy="16.187" r="9.311"/><circle fill-rule="evenodd" clip-rule="evenodd" fill="#fff" cx="24.639" cy="24.312" r="14.729"/><circle fill-rule="evenodd" clip-rule="evenodd" fill="#fff" cx="31.057" cy="31.438" r="9.312"/><circle fill-rule="evenodd" clip-rule="evenodd" fill="#fff" cx="17.416" cy="17.992" r="9.311"/><path fill="#29AAE1" d="M30.649 33.019c1.38-1.146 2.07-2.586 2.07-4.318 0-1.366-.376-2.455-1.128-3.268-.752-.811-1.655-1.409-2.71-1.795-1.054-.384-2.478-.774-4.271-1.168-1.792-.394-3.017-.802-3.672-1.224-.656-.421-.983-1.054-.983-1.898 0-.926.408-1.668 1.224-2.228s1.967-.839 3.453-.839c3.071 0 4.739 1.22 5.006 3.659 0 0 .08.998 1.33.998l1.27-.998c-.082-1.925-.82-3.416-2.215-4.47-1.394-1.054-3.228-1.582-5.501-1.582-2.164 0-3.899.522-5.206 1.568-1.307 1.045-1.96 2.384-1.96 4.016 0 1.449.502 2.608 1.506 3.479s2.659 1.552 4.965 2.042c2.306.49 3.932.988 4.875 1.492.944.504 1.417 1.312 1.417 2.421 0 1.055-.456 1.889-1.368 2.503-.913.614-2.116.922-3.611.922-1.576 0-2.922-.36-4.036-1.08-1.114-.719-1.74-1.831-1.877-3.336 0 0 .101-1.197-1.399-1.197-1.178 0-1.173 1.197-1.173 1.197.073 2 .813 3.637 2.221 4.911 1.407 1.274 3.532 1.911 6.375 1.911 2.219 0 4.019-.573 5.398-1.718z"/></svg>