<svg xmlns="http://www.w3.org/2000/svg" viewBox="176 76 48 48" enable-background="new 176 76 48 48"><linearGradient id="a" gradientUnits="userSpaceOnUse" x1="71.366" y1="132.875" x2="71.366" y2="121.375" gradientTransform="matrix(4.167 0 0 -4.167 -97.318 629.646)"><stop offset="0" stop-color="#9CC100"/><stop offset=".207" stop-color="#94BB00"/><stop offset=".536" stop-color="#7DA900"/><stop offset=".942" stop-color="#588D00"/><stop offset="1" stop-color="#528900"/></linearGradient><path fill="url(#a)" d="M224 117.928c0 3.307-2.683 5.989-5.989 5.989h-35.938c-3.308 0-5.99-2.683-5.99-5.989v-35.938c0-3.307 2.682-5.99 5.99-5.99h35.938c3.307 0 5.989 2.683 5.989 5.99v35.938z"/><path opacity=".8" fill="#9CC100" d="M185.938 123.917h1.104s7.167-6.959 16.5 0h1.771c-.001 0-10.751-12.896-19.375 0z"/><path fill="#9CC100" d="M216.581 97.194c-.375 0-.757-.092-1.11-.287-8.209-4.518-18.671-5.733-29.457-3.422-.715.153-1.147.246-1.772.038-1.209-.404-1.863-1.711-1.46-2.92.297-.891 1.085-1.481 1.964-1.568l.3-.064c11.871-2.544 23.467-1.162 32.651 3.892 1.117.615 1.524 2.019.909 3.136-.42.762-1.21 1.195-2.025 1.195z"/><path fill="#9CC100" d="M213.209 105.008c-.321 0-.646-.079-.947-.246-13.592-7.542-24.939-3.137-25.052-3.092-1.002.402-2.139-.084-2.541-1.086-.402-1 .084-2.138 1.085-2.54.531-.214 13.203-5.134 28.403 3.301.944.523 1.284 1.713.761 2.655-.357.646-1.023 1.008-1.709 1.008z"/><path fill="#9CC100" d="M210.545 112.111c-.365 0-.731-.112-1.048-.343-8.742-6.395-21.662-2.614-21.791-2.575-.939.282-1.93-.249-2.213-1.187-.283-.938.247-1.929 1.184-2.213.597-.181 14.729-4.345 24.917 3.108.792.578.965 1.689.385 2.48-.348.478-.887.73-1.434.73z"/><path fill="#1C4600" d="M216.581 96.194c-.375 0-.757-.092-1.11-.287-8.209-4.518-18.671-5.733-29.457-3.422-.715.153-1.147.246-1.772.038-1.209-.404-1.863-1.711-1.46-2.92.297-.891 1.085-1.481 1.964-1.568l.3-.064c11.871-2.544 23.467-1.162 32.651 3.892 1.117.615 1.524 2.019.909 3.136-.42.762-1.21 1.195-2.025 1.195z"/><path fill="#2A5908" d="M213.209 104.008c-.321 0-.646-.079-.947-.246-13.592-7.542-24.939-3.137-25.052-3.092-1.002.402-2.139-.084-2.541-1.085-.402-1.001.084-2.138 1.085-2.54.531-.214 13.203-5.134 28.403 3.301.944.523 1.284 1.713.761 2.655-.357.645-1.023 1.007-1.709 1.007z"/><path fill="#538900" d="M210.545 111.111c-.365 0-.731-.112-1.048-.343-8.742-6.395-21.662-2.614-21.791-2.575-.939.282-1.93-.249-2.213-1.187-.283-.938.247-1.929 1.184-2.213.597-.181 14.729-4.345 24.917 3.108.792.578.965 1.689.385 2.48-.348.478-.887.73-1.434.73z"/><path fill="#1C4600" d="M214.342 123.917c-.137-.344-3.468-8.542-14.58-11.426-11.472-2.979-19.387 4.761-22.752 8.637 1.053 1.763 2.896 2.638 4.594 2.771 1.828 0 2.829.019 4.333.019.283 0 5.11-5.248 11.772-3.519 3.192.829 5.349 2.229 6.754 3.519h9.879z"/></svg>