<svg xmlns="http://www.w3.org/2000/svg" viewBox="456 256 48 48" enable-background="new 456 256 48 48"><linearGradient id="a" gradientUnits="userSpaceOnUse" x1="351.366" y1="312.875" x2="351.366" y2="301.375" gradientTransform="matrix(4.167 0 0 -4.167 -983.994 1559.654)"><stop offset="0" stop-color="#EC9728"/><stop offset="1" stop-color="#DF4C18"/></linearGradient><path fill="url(#a)" d="M504 297.928c0 3.307-2.683 5.989-5.989 5.989h-35.938c-3.308 0-5.99-2.683-5.99-5.989v-35.938c0-3.307 2.682-5.99 5.99-5.99h35.938c3.307 0 5.989 2.683 5.989 5.99v35.938z"/><g fill="#DF4C18"><polygon points="488.796,294.601 467.833,294.601 467.833,281.653 470.462,281.653 470.462,291.984 486.167,291.984 486.167,281.653 488.796,281.653"/><rect x="472.302" y="287.277" width="12.091" height="2.614"/><rect x="472.302" y="283.092" transform="matrix(.996 .088 -.088 .996 26.87 -40.974)" width="12.09" height="2.616"/><polygon points="484.597,282.715 472.961,279.447 473.675,276.929 485.311,280.198"/><polygon points="485.624,279.447 475.147,273.441 476.459,271.174 486.937,277.179"/><polygon points="487.673,276.657 480.678,266.845 482.821,265.331 489.817,275.144"/><polygon points="490.414,274.858 488.27,263.017 490.856,262.553 493.002,274.395"/></g><g fill="#fff"><polygon points="488.796,296.591 467.833,296.591 467.833,283.644 470.462,283.644 470.462,293.975 486.167,293.975 486.167,283.644 488.796,283.644"/><rect x="472.302" y="289.268" width="12.091" height="2.615"/><rect x="472.302" y="285.082" transform="matrix(.996 .088 -.088 .996 27.045 -40.966)" width="12.09" height="2.616"/><polygon points="484.597,284.705 472.961,281.438 473.675,278.919 485.311,282.188"/><polygon points="485.624,281.438 475.147,275.431 476.459,273.164 486.937,279.169"/><polygon points="487.673,278.647 480.678,268.835 482.821,267.321 489.817,277.134"/><polygon points="490.414,276.848 488.27,265.007 490.856,264.543 493.002,276.385"/></g></svg>