<svg xmlns="http://www.w3.org/2000/svg" viewBox="176 76 48 48" enable-background="new 176 76 48 48"><linearGradient id="a" gradientUnits="userSpaceOnUse" x1="71.43" y1="132.94" x2="71.43" y2="121.439" gradientTransform="matrix(4.167 0 0 -4.167 -97.583 629.917)"><stop offset="0" stop-color="#F93C2D"/><stop offset="1" stop-color="#D32D20"/></linearGradient><path fill="url(#a)" d="M224 117.928c0 3.307-2.683 5.989-5.989 5.989h-35.938c-3.308 0-5.99-2.683-5.99-5.989v-35.938c0-3.307 2.682-5.99 5.99-5.99h35.938c3.307 0 5.989 2.683 5.989 5.99v35.938z"/><path fill="#CD2D20" d="M182.8 98.617h5.712v4.886s-.067 1.785 1.888 1.785c2.157 0 1.888-1.719 1.888-1.719v-11.189s.032-7.65 7.751-7.65c7.718 0 7.617 7.145 7.617 7.145v2.73l-3.506 1.146-2.394-1.112v-2.359s.069-1.619-1.718-1.619-1.854 1.314-1.854 1.619v11.661s-.27 7.246-7.583 7.246c-7.314 0-7.802-6.807-7.802-7.649l.001-4.921z"/><path fill="#CD2D20" d="M201.757 98.684l2.394 1.112 3.506-1.147v5.057s-.034 1.651 1.819 1.651l1.92-1.651v-5.057h5.832v5.731s.304 6.807-7.583 6.807c-8.19 0-7.888-7.145-7.888-7.145v-5.358z"/><path fill="#fff" d="M182.8 100.617h5.712v4.886s-.067 1.785 1.888 1.785c2.157 0 1.888-1.719 1.888-1.719v-11.189s.032-7.65 7.751-7.65c7.718 0 7.617 7.145 7.617 7.145v2.73l-3.506 1.146-2.394-1.112v-2.359s.069-1.619-1.718-1.619-1.854 1.314-1.854 1.619v11.661s-.27 7.246-7.583 7.246c-7.314 0-7.802-6.807-7.802-7.649l.001-4.921z"/><path fill="#fff" d="M201.757 100.684l2.394 1.112 3.506-1.147v5.057s-.034 1.651 1.819 1.651l1.92-1.651v-5.057h5.832v5.731s.304 6.807-7.583 6.807c-8.19 0-7.888-7.145-7.888-7.145v-5.358z"/></svg>