<svg xmlns="http://www.w3.org/2000/svg" xmlns:xlink="http://www.w3.org/1999/xlink" viewBox="456 256 48 48" enable-background="new 456 256 48 48"><linearGradient id="a" gradientUnits="userSpaceOnUse" x1="351.366" y1="312.875" x2="351.366" y2="301.375" gradientTransform="matrix(4.167 0 0 -4.167 -983.994 1559.654)"><stop offset="0" stop-color="#809CC8"/><stop offset="1" stop-color="#5776A3"/></linearGradient><path fill="url(#a)" d="M504 297.928c0 3.307-2.683 5.989-5.989 5.989h-35.938c-3.308 0-5.99-2.683-5.99-5.989v-35.938c0-3.307 2.682-5.99 5.99-5.99h35.938c3.307 0 5.989 2.683 5.989 5.99v35.938z"/><defs><path id="b" d="M504 298.011c0 3.307-2.683 5.989-5.989 5.989h-35.938c-3.308 0-5.989-2.683-5.989-5.989v-35.938c0-3.307 2.682-5.99 5.989-5.99h35.938c3.307 0 5.989 2.683 5.989 5.99v35.938z"/></defs><clipPath id="c"><use xlink:href="#b" overflow="visible"/></clipPath><path clip-path="url(#c)" fill="#4D6E96" d="M500.917 254s-30.667 8.75-44.917 17.333v11.917s36.916-5.5 38.75-2.25-28.417 14.833-38.75 16.25v4.75s37.166-9.666 48-17.166v-14.5s-33.5 5.333-35.334 2.833c-1.832-2.5 14.834-10.5 35.334-15.167 0 0-.177-4-3.083-4z"/><path clip-path="url(#c)" fill="#fff" d="M500.917 256s-30.667 8.75-44.917 17.333v11.917s36.916-5.5 38.75-2.25-28.417 14.833-38.75 16.25v4.75s37.166-9.666 48-17.166v-14.5s-33.5 5.333-35.334 2.833c-1.832-2.5 14.834-10.5 35.334-15.167 0 0-.177-4-3.083-4z"/></svg>