<svg xmlns="http://www.w3.org/2000/svg" viewBox="456 256 48 48" enable-background="new 456 256 48 48"><linearGradient id="a" gradientUnits="userSpaceOnUse" x1="351.366" y1="312.875" x2="351.366" y2="301.375" gradientTransform="matrix(4.167 0 0 -4.167 -983.994 1559.654)"><stop offset="0" stop-color="#3EABBA"/><stop offset=".251" stop-color="#3EA4AA"/><stop offset=".742" stop-color="#3E937F"/><stop offset=".779" stop-color="#3E927C"/></linearGradient><path fill="url(#a)" d="M504 297.928c0 3.307-2.683 5.989-5.989 5.989h-35.938c-3.308 0-5.99-2.683-5.99-5.989v-35.938c0-3.307 2.682-5.99 5.99-5.99h35.938c3.307 0 5.989 2.683 5.989 5.99v35.938z"/><polygon fill="#2F7C73" points="480.284,273.961 475.435,289.668 465.419,289.668 480.284,264.292 480.342,264.292 495.207,289.668 485.191,289.668 480.342,273.961"/><polygon fill="#fff" points="480.285,277.041 475.563,292.334 465.811,292.334 480.285,267.625 480.341,267.625 494.815,292.334 485.063,292.334 480.341,277.041"/></svg>