<svg xmlns="http://www.w3.org/2000/svg" viewBox="176 76 48 48" enable-background="new 176 76 48 48"><linearGradient id="a" gradientUnits="userSpaceOnUse" x1="71.366" y1="132.875" x2="71.366" y2="121.375" gradientTransform="matrix(4.167 0 0 -4.167 -97.318 629.646)"><stop offset="0" stop-color="#2F4E68"/><stop offset="1" stop-color="#22394C"/></linearGradient><path fill="url(#a)" d="M224 117.928c0 3.307-2.683 5.989-5.989 5.989h-35.938c-3.308 0-5.99-2.683-5.99-5.989v-35.938c0-3.307 2.682-5.99 5.99-5.99h35.938c3.307 0 5.989 2.683 5.989 5.99v35.938z"/><path fill="#22394C" d="M201.37 81.311v8.522h8.469v5.347h-8.469v11.01s-.159 6.14 9.422 1.905v5.24s-3.335 1.271-8.681 1.271c-5.347 0-7.834-2.807-7.834-6.141v-13.393h-4.235v-4.235s6.882-2.488 6.934-9.528h4.394z"/><path fill="#fff" d="M201.37 83.311v8.522h8.469v5.347h-8.469v11.01s-.159 6.14 9.422 1.905v5.24s-3.335 1.271-8.681 1.271c-5.347 0-7.834-2.807-7.834-6.141v-13.393h-4.235v-4.235s6.882-2.488 6.934-9.528h4.394z"/></svg>