<svg xmlns="http://www.w3.org/2000/svg" viewBox="456 256 48 48" enable-background="new 456 256 48 48"><linearGradient id="a" gradientUnits="userSpaceOnUse" x1="351.366" y1="312.875" x2="351.366" y2="301.375" gradientTransform="matrix(4.167 0 0 -4.167 -983.994 1559.654)"><stop offset="0" stop-color="#A2DCEF"/><stop offset="1" stop-color="#7BCAE1"/></linearGradient><path fill="url(#a)" d="M504 297.928c0 3.307-2.683 5.989-5.989 5.989h-35.938c-3.308 0-5.99-2.683-5.99-5.989v-35.938c0-3.307 2.682-5.99 5.99-5.99h35.938c3.307 0 5.989 2.683 5.989 5.99v35.938z"/><path fill="#3FA8BC" d="M477.067 269.068s-3.22-1.516-9.251 6.065c-6.032 7.582-4.606 13.606-.856 15.941 3.75 2.336 11.452 4.016 17.77.533 6.316-3.483 9.333-8.565 7.01-11.434-2.323-2.869-5.38-1.886-5.38-1.886s1.793-3.032-.123-4.507c-1.915-1.476-6.439.41-7.866 1.762 0 .001 1.182-5.654-1.304-6.474z"/><path fill="#3FA8BC" d="M489.497 274.272c-.295 0-.554-.213-.603-.515-.352-2.153-1.843-2.034-1.906-2.029-.336.032-.634-.215-.667-.553-.032-.338.214-.638.551-.671.932-.088 2.801.434 3.229 3.054.055.335-.171.651-.504.706l-.1.008z"/><path fill="#3FA8BC" d="M492.635 273.945c-.442 0-.844-.305-.95-.757-.956-4.047-4.412-4.16-4.447-4.161-.54-.01-.97-.459-.959-1.003.01-.543.463-.977.997-.964 1.728.033 5.271 1.262 6.312 5.674.125.528-.199 1.059-.725 1.184l-.228.027z"/><path fill="#3FA8BC" d="M496.425 274.067c-.541 0-1.013-.401-1.089-.956-.933-6.819-7.855-7.731-7.925-7.739-.604-.073-1.035-.624-.963-1.23.073-.607.621-1.039 1.224-.967.087.01 8.683 1.142 9.845 9.635.083.605-.338 1.164-.94 1.247l-.152.01z"/><linearGradient id="b" gradientUnits="userSpaceOnUse" x1="478.118" y1="270.079" x2="478.118" y2="294.599"><stop offset="0" stop-color="#D62829"/><stop offset="1" stop-color="#AD3229"/></linearGradient><path fill="url(#b)" d="M477.067 270.202s-3.22-1.508-9.251 6.032c-6.032 7.541-4.606 13.532-.856 15.854 3.75 2.323 11.452 3.994 17.77.53 6.316-3.464 9.333-8.519 7.01-11.371-2.323-2.853-5.38-1.875-5.38-1.875s1.793-3.016-.123-4.483c-1.915-1.467-6.439.407-7.866 1.752 0 .001 1.182-5.623-1.304-6.439z"/><ellipse transform="matrix(.992 -.126 .126 .992 -32.331 62.563)" fill="#fff" cx="476.922" cy="286.095" rx="10.865" ry="6.921"/><ellipse transform="matrix(.784 -.62 .62 .784 -75.381 356.773)" stroke="#000" stroke-miterlimit="10" cx="475.672" cy="286.853" rx="5.336" ry="4.548"/><ellipse transform="matrix(.612 -.791 .791 .612 -43.718 486.568)" fill="#fff" stroke="#000" stroke-miterlimit="10" cx="474.195" cy="287.854" rx="1.666" ry="1.42"/><ellipse transform="matrix(.612 -.791 .791 .612 -41.55 487.707)" fill="#fff" stroke="#000" stroke-miterlimit="10" cx="476.347" cy="286.205" rx=".642" ry=".615"/><linearGradient id="c" gradientUnits="userSpaceOnUse" x1="488.213" y1="271.622" x2="488.213" y2="275.378"><stop offset="0" stop-color="#F9C906"/><stop offset="1" stop-color="#EB9406"/></linearGradient><path fill="url(#c)" d="M489.497 275.378c-.295 0-.554-.212-.603-.512-.352-2.141-1.843-2.023-1.906-2.018-.336.032-.634-.214-.667-.55-.032-.336.214-.635.551-.667.932-.088 2.801.431 3.229 3.037.055.333-.171.647-.504.702l-.1.008z"/><linearGradient id="d" gradientUnits="userSpaceOnUse" x1="489.946" y1="268.205" x2="489.946" y2="275.052"><stop offset="0" stop-color="#F9C906"/><stop offset="1" stop-color="#EB9406"/></linearGradient><path fill="url(#d)" d="M492.635 275.052c-.442 0-.844-.303-.95-.752-.956-4.025-4.412-4.138-4.447-4.139-.54-.01-.97-.457-.959-.997.01-.54.463-.972.997-.959 1.728.033 5.271 1.255 6.312 5.643.125.525-.199 1.053-.725 1.177l-.228.027z"/><linearGradient id="e" gradientUnits="userSpaceOnUse" x1="491.984" y1="264.334" x2="491.984" y2="275.174"><stop offset="0" stop-color="#F9C906"/><stop offset="1" stop-color="#EB9406"/></linearGradient><path fill="url(#e)" d="M496.425 275.174c-.541 0-1.013-.399-1.089-.951-.933-6.782-7.855-7.689-7.925-7.697-.604-.073-1.035-.62-.963-1.224.073-.604.621-1.033 1.224-.961.087.01 8.683 1.136 9.845 9.583.083.602-.338 1.157-.94 1.24l-.152.01z"/></svg>