<svg xmlns="http://www.w3.org/2000/svg" viewBox="456 256 48 48" enable-background="new 456 256 48 48"><linearGradient id="a" gradientUnits="userSpaceOnUse" x1="351.366" y1="312.875" x2="351.366" y2="301.375" gradientTransform="matrix(4.167 0 0 -4.167 -983.994 1559.654)"><stop offset="0" stop-color="#E41400"/><stop offset="1" stop-color="#CB1400"/></linearGradient><path fill="url(#a)" d="M504 297.928c0 3.307-2.683 5.989-5.989 5.989h-35.938c-3.308 0-5.99-2.683-5.99-5.989v-35.938c0-3.307 2.682-5.99 5.99-5.99h35.938c3.307 0 5.989 2.683 5.989 5.99v35.938z"/><path fill="#B31400" d="M482.494 266.439s-3.348-4.582-11.515-.845l-2.88 10.788s6.896-3.032 11.449.774l2.946-10.717z"/><path fill="#B31400" d="M484.234 267.498s3.883 4.441 11.315.775l-2.882 10.716s-6.76 3.455-11.446-.775l3.013-10.716z"/><path fill="#B31400" d="M467.698 278.354l-3.08 10.646s7.766-2.819 11.449.916l2.945-10.717c0 .001-3.346-4.015-11.314-.845z"/><path fill="#B31400" d="M480.618 280.471s4.889 4.017 11.45.705l-2.88 10.646s-5.089 4.02-11.515-.705l2.945-10.646z"/><path fill="#fff" d="M482.494 268.38s-3.348-4.424-11.515-.816l-2.88 10.416s6.896-2.927 11.449.748l2.946-10.348z"/><path fill="#fff" d="M484.234 269.401s3.883 4.289 11.315.75l-2.882 10.347s-6.76 3.335-11.446-.75l3.013-10.347z"/><path fill="#fff" d="M467.698 279.885l-3.08 10.278s7.766-2.722 11.449.884l2.945-10.346s-3.346-3.879-11.314-.816z"/><path fill="#fff" d="M480.618 281.928s4.889 3.878 11.45.679l-2.88 10.28s-5.089 3.881-11.515-.683l2.945-10.276z"/></svg>