<svg xmlns="http://www.w3.org/2000/svg" viewBox="0 0 48 48" enable-background="new 0 0 48 48"><linearGradient id="a" gradientUnits="userSpaceOnUse" x1="24" x2="24" y2="48.001"><stop offset="0" stop-color="#fff"/><stop offset="1" stop-color="#EAEAEA"/></linearGradient><path fill-rule="evenodd" clip-rule="evenodd" fill="url(#a)" d="M48 42c0 3.313-2.687 6-6 6h-36c-3.313 0-6-2.687-6-6v-36c0-3.313 2.687-6 6-6h36c3.313 0 6 2.687 6 6v36z"/><linearGradient id="b" gradientUnits="userSpaceOnUse" x1="24.5" y1="23" x2="24.5" y2="42.001"><stop offset="0" stop-color="#E16D35"/><stop offset="1" stop-color="#C93D1D"/></linearGradient><path fill-rule="evenodd" clip-rule="evenodd" fill="url(#b)" d="M38 39.718c0 1.261-1.021 2.282-2.282 2.282h-22.436c-1.26 0-2.282-1.021-2.282-2.282v-14.436c0-1.261 1.022-2.282 2.282-2.282h22.436c1.261 0 2.282 1.021 2.282 2.282v14.436z"/><path fill="#C93D1D" d="M13.656 28.017h2.057v9.642h1.509v-9.642h2.057v-2.187h-5.624v2.187zm9.565 5.566c0 .872-.083 1.499-.25 1.88s-.436.571-.808.571c-.327 0-.554-.174-.682-.521-.128-.348-.192-.875-.192-1.582v-4.838h-1.365v5.269c0 .53.027 1.014.082 1.449.055.437.149.807.284 1.11.135.304.319.538.553.704.234.165.534.248.899.248.289 0 .57-.11.846-.331.275-.221.5-.58.673-1.077h.029v1.193h1.298v-8.565h-1.365v4.49zm6.753-3.645c-.195-.365-.415-.636-.658-.812-.244-.176-.49-.265-.74-.265-.308 0-.604.103-.89.307s-.511.527-.678.969h-.019v-4.307h-1.365v11.828h1.298v-1.094h.019c.147.475.366.812.654 1.011.288.198.615.298.98.298.25 0 .496-.088.74-.265.243-.177.463-.447.658-.812.195-.365.354-.831.476-1.4.122-.568.183-1.245.183-2.029s-.061-1.46-.183-2.029c-.121-.568-.28-1.035-.475-1.4zm-.774 4.473c-.045.331-.115.624-.212.878-.096.254-.216.455-.36.604s-.319.224-.523.224c-.199 0-.372-.074-.52-.224s-.27-.351-.365-.604c-.097-.254-.167-.547-.212-.878s-.067-.674-.067-1.027c0-.364.022-.712.067-1.044.045-.331.115-.623.212-.878.096-.254.218-.455.365-.604s.32-.224.52-.224c.204 0 .379.074.523.224s.265.351.36.604c.097.255.167.547.212.878.045.332.067.68.067 1.044.001.353-.022.696-.067 1.027zm5.355 1.35c-.199.238-.437.356-.712.356-.385 0-.68-.171-.884-.514-.206-.342-.317-.895-.337-1.656h3.586c.025-.663-.007-1.298-.097-1.905s-.235-1.148-.438-1.623c-.201-.476-.459-.854-.773-1.135-.314-.282-.683-.423-1.105-.423-.378 0-.723.116-1.033.348-.312.232-.579.55-.803.953-.225.403-.397.881-.52 1.433-.122.553-.183 1.148-.183 1.789 0 .663.06 1.271.178 1.822.119.553.287 1.027.505 1.425s.484.704.798.919c.314.216.667.323 1.058.323.563 0 1.045-.221 1.442-.662.396-.442.691-1.177.884-2.203h-1.201c-.045.264-.167.515-.365.753zm-1.87-3.868c.035-.209.097-.408.183-.596.087-.188.202-.346.346-.473.145-.127.325-.19.544-.19.333 0 .581.155.745.464.163.31.276.762.341 1.358h-2.221c.006-.165.026-.353.062-.563z"/><path fill="#fff" d="M19.009 14.792l-2.098-5.745h-1.108l2.706 7.13v4.934h.932v-4.934l2.677-7.13h-1.059l-2.05 5.745zm7.775-1.293c-.209-.411-.466-.735-.77-.972-.304-.236-.658-.354-1.063-.354-.399 0-.752.118-1.059.354-.307.237-.565.561-.774.972-.209.411-.366.896-.471 1.453s-.157 1.157-.157 1.799.052 1.239.157 1.791c.104.552.261 1.034.471 1.445.209.411.467.732.774.963s.66.346 1.059.346c.405 0 .76-.115 1.063-.346s.561-.552.77-.963.366-.893.471-1.445c.104-.552.157-1.149.157-1.791s-.053-1.242-.157-1.799-.262-1.042-.471-1.453zm-.377 4.663c-.082.412-.194.755-.339 1.031-.144.276-.312.487-.505.634-.192.146-.396.22-.612.22s-.42-.073-.613-.22c-.193-.146-.361-.357-.505-.634-.144-.276-.257-.619-.338-1.031-.082-.411-.123-.881-.123-1.411 0-.529.041-1 .123-1.411.082-.411.194-.757.338-1.039.144-.282.312-.496.505-.642.192-.146.397-.22.613-.22s.42.073.612.22c.193.146.361.36.505.642.145.282.257.628.339 1.039.081.411.122.881.122 1.411s-.041 1-.122 1.411zm5.349-5.787v4.934c0 .395-.031.758-.094 1.09-.062.333-.155.623-.279.87-.124.248-.279.439-.466.575-.187.135-.407.203-.662.203-.32 0-.571-.158-.755-.473-.183-.315-.274-.744-.274-1.284v-5.914h-.833v5.745c0 .473.027.904.083 1.292s.152.724.289 1.005c.138.282.317.499.54.65.222.152.5.228.833.228.372 0 .696-.126.971-.38s.5-.65.677-1.191h.02v1.386h.784v-8.735h-.834z"/><path fill="#fff" d="M13.656 29.017h2.057v9.642h1.509v-9.642h2.057v-2.187h-5.624v2.187zm9.565 5.566c0 .872-.083 1.499-.25 1.88s-.436.571-.808.571c-.327 0-.554-.174-.682-.521-.128-.348-.192-.875-.192-1.582v-4.838h-1.365v5.269c0 .53.027 1.014.082 1.449.055.437.149.807.284 1.11.135.304.319.538.553.704.234.165.534.248.899.248.289 0 .57-.11.846-.331.275-.221.5-.58.673-1.077h.029v1.193h1.298v-8.565h-1.365v4.49zm6.753-3.645c-.195-.365-.415-.636-.658-.812-.244-.176-.49-.265-.74-.265-.308 0-.604.103-.89.307s-.511.527-.678.969h-.019v-4.307h-1.365v11.828h1.298v-1.094h.019c.147.475.366.812.654 1.011.288.198.615.298.98.298.25 0 .496-.088.74-.265.243-.177.463-.447.658-.812.195-.365.354-.831.476-1.4.122-.568.183-1.245.183-2.029s-.061-1.46-.183-2.029c-.121-.568-.28-1.035-.475-1.4zm-.774 4.473c-.045.331-.115.624-.212.878-.096.254-.216.455-.36.604s-.319.224-.523.224c-.199 0-.372-.074-.52-.224s-.27-.351-.365-.604c-.097-.254-.167-.547-.212-.878s-.067-.674-.067-1.027c0-.364.022-.712.067-1.044.045-.331.115-.623.212-.878.096-.254.218-.455.365-.604s.32-.224.52-.224c.204 0 .379.074.523.224s.265.351.36.604c.097.255.167.547.212.878.045.332.067.68.067 1.044.001.353-.022.696-.067 1.027zm5.355 1.35c-.199.238-.437.356-.712.356-.385 0-.68-.171-.884-.514-.206-.342-.317-.895-.337-1.656h3.586c.025-.663-.007-1.298-.097-1.905s-.235-1.148-.438-1.623c-.201-.476-.459-.854-.773-1.135-.314-.282-.683-.423-1.105-.423-.378 0-.723.116-1.033.348-.312.232-.579.55-.803.953-.225.403-.397.881-.52 1.433-.122.553-.183 1.148-.183 1.789 0 .663.06 1.271.178 1.822.119.553.287 1.027.505 1.425s.484.704.798.919c.314.216.667.323 1.058.323.563 0 1.045-.221 1.442-.662.396-.442.691-1.177.884-2.203h-1.201c-.045.264-.167.515-.365.753zm-1.87-3.868c.035-.209.097-.408.183-.596.087-.188.202-.346.346-.473.145-.127.325-.19.544-.19.333 0 .581.155.745.464.163.31.276.762.341 1.358h-2.221c.006-.165.026-.353.062-.563z"/><path fill="#4C4C4C" d="M19.009 13.977l-2.098-5.745h-1.108l2.706 7.13v4.934h.932v-4.934l2.677-7.13h-1.059l-2.05 5.745zm7.775-1.292c-.209-.411-.466-.735-.77-.972-.304-.236-.658-.354-1.063-.354-.399 0-.752.118-1.059.354-.307.237-.565.561-.774.972-.209.411-.366.896-.471 1.453s-.157 1.157-.157 1.799.052 1.239.157 1.791c.104.552.261 1.034.471 1.445.209.411.467.732.774.963s.66.346 1.059.346c.405 0 .76-.115 1.063-.346s.561-.552.77-.963.366-.893.471-1.445c.104-.552.157-1.149.157-1.791s-.053-1.242-.157-1.799-.262-1.042-.471-1.453zm-.377 4.663c-.082.412-.194.755-.339 1.031-.144.276-.312.487-.505.634-.192.146-.396.22-.612.22s-.42-.073-.613-.22c-.193-.146-.361-.357-.505-.634-.144-.276-.257-.619-.338-1.031-.082-.411-.123-.881-.123-1.411 0-.529.041-1 .123-1.411.082-.411.194-.757.338-1.039.144-.282.312-.496.505-.642.192-.146.397-.22.613-.22s.42.073.612.22c.193.146.361.36.505.642.145.282.257.628.339 1.039.081.411.122.881.122 1.411s-.041 1-.122 1.411zm5.349-5.787v4.934c0 .395-.031.758-.094 1.09-.062.333-.155.623-.279.87-.124.248-.279.439-.466.575-.187.135-.407.203-.662.203-.32 0-.571-.158-.755-.473-.183-.315-.274-.744-.274-1.284v-5.914h-.833v5.745c0 .473.027.904.083 1.292s.152.724.289 1.005c.138.282.317.499.54.65.222.152.5.228.833.228.372 0 .696-.126.971-.38s.5-.65.677-1.191h.02v1.386h.784v-8.735h-.834z"/></svg>