<svg xmlns="http://www.w3.org/2000/svg" viewBox="0 0 48 48" enable-background="new 0 0 48 48"><linearGradient id="a" gradientUnits="userSpaceOnUse" x1="24" x2="24" y2="48.001"><stop offset="0" stop-color="#303030"/><stop offset="1" stop-color="#1A1A1A"/></linearGradient><path fill-rule="evenodd" clip-rule="evenodd" fill="url(#a)" d="M48 42c0 3.313-2.687 6-6 6h-36c-3.313 0-6-2.687-6-6v-36c0-3.313 2.687-6 6-6h36c3.313 0 6 2.687 6 6v36z"/><linearGradient id="b" gradientUnits="userSpaceOnUse" x1="24.596" y1="6.833" x2="24.596" y2="15.036"><stop offset="0" stop-color="#A1D296"/><stop offset="1" stop-color="#5BC472"/></linearGradient><circle fill-rule="evenodd" clip-rule="evenodd" fill="url(#b)" cx="24.596" cy="10.935" r="4.101"/><linearGradient id="c" gradientUnits="userSpaceOnUse" x1="24.596" y1="32.465" x2="24.596" y2="40.667"><stop offset="0" stop-color="#A1D296"/><stop offset="1" stop-color="#5BC472"/></linearGradient><circle fill-rule="evenodd" clip-rule="evenodd" fill="url(#c)" cx="24.596" cy="36.566" r="4.101"/><linearGradient id="d" gradientUnits="userSpaceOnUse" x1="11.268" y1="19.137" x2="11.268" y2="27.339"><stop offset="0" stop-color="#A1D296"/><stop offset="1" stop-color="#5BC472"/></linearGradient><circle fill-rule="evenodd" clip-rule="evenodd" fill="url(#d)" cx="11.268" cy="23.238" r="4.101"/><linearGradient id="e" gradientUnits="userSpaceOnUse" x1="36.898" y1="19.137" x2="36.898" y2="27.339"><stop offset="0" stop-color="#A1D296"/><stop offset="1" stop-color="#5BC472"/></linearGradient><circle fill-rule="evenodd" clip-rule="evenodd" fill="url(#e)" cx="36.899" cy="23.238" r="4.101"/><path fill="#fff" d="M19.736 33.791c-2.494-1.162-4.485-3.229-5.547-5.777-1.905 1.232-4.006.717-4.006.717 1.476 4.223 4.785 7.592 8.968 9.147-.568-2.403.585-4.087.585-4.087z"/><path fill="#fff" d="M19.135 9.694c-3.784 1.413-6.851 4.31-8.489 7.978 0 0 2.132-.381 3.931 1.052 1.127-2.176 2.957-3.93 5.187-4.962-1.207-2.239-.629-4.068-.629-4.068z"/><path fill="#fff" d="M30.098 9.881s.469 1.906-.768 4.044c1.981.999 3.623 2.579 4.699 4.514 2.029-1.218 4.133-.657 4.133-.657-1.558-3.566-4.462-6.415-8.064-7.901z"/><path fill="#fff" d="M34.456 28.275c-1.035 2.313-2.845 4.208-5.097 5.352 0 0 1.211 1.602.723 4.065 4.013-1.651 7.159-4.991 8.551-9.13-2.367.688-4.177-.287-4.177-.287z"/></svg>