<svg xmlns="http://www.w3.org/2000/svg" viewBox="0 0 48 48" enable-background="new 0 0 48 48"><linearGradient id="a" gradientUnits="userSpaceOnUse" x1="24" x2="24" y2="48.001"><stop offset="0" stop-color="#AECD46"/><stop offset="1" stop-color="#6AA326"/></linearGradient><path fill-rule="evenodd" clip-rule="evenodd" fill="url(#a)" d="M48 42c0 3.313-2.687 6-6 6h-36c-3.313 0-6-2.687-6-6v-36c0-3.313 2.687-6 6-6h36c3.313 0 6 2.687 6 6v36z"/><path fill-rule="evenodd" clip-rule="evenodd" fill="#C1D667" d="M19.992 12.085s.254 1.605 2.419 1.605h11.077s1.019.371-.128 1.359c-1.146.988-14.259 15.562-14.259 15.562s-.255.988 1.273.617c1.527-.37 4.584 1.111 6.11 2.717 1.529 1.606 6.24 2.225 8.022 1.111 0 0 .763 2.595-1.782 4.2-2.547 1.606-4.456 1.236-7.131-.864-2.673-2.101-4.965-3.952-8.021-3.952s-5.73-.865-3.947-2.965c1.782-2.1 11.841-13.709 11.841-13.709l-5.856.124s-2.928-.493-2.419-3.087c.509-2.595 2.801-2.718 2.801-2.718z"/><path fill-rule="evenodd" clip-rule="evenodd" fill="#262626" d="M19.992 10.178s.254 1.605 2.419 1.605h11.077s1.019.371-.128 1.359c-1.146.988-14.259 15.563-14.259 15.563s-.255.988 1.273.617c1.527-.371 4.584 1.11 6.11 2.717 1.529 1.605 6.24 2.224 8.022 1.11 0 0 .763 2.595-1.782 4.201-2.547 1.605-4.456 1.235-7.131-.865-2.673-2.1-4.965-3.952-8.021-3.952s-5.73-.864-3.947-2.965c1.782-2.1 11.841-13.709 11.841-13.709l-5.857.124s-2.928-.494-2.419-3.087c.51-2.595 2.802-2.718 2.802-2.718z"/></svg>