<svg style="background-color:#ffffff00" xmlns="http://www.w3.org/2000/svg" width="500" height="500"><g><path d="M10 130c0-66.275 53.725-120 120-120h240c66.275 0 120 53.725 120 120v240c0 66.275-53.725 120-120 120h-240c-66.275 0-120-53.725-120-120v-240z" fill="#fff"/><path d="M10 130c0-66.275 53.725-120 120-120h120v240h-240v-120z" fill="#bada55"/><path d="M144 197c0-29.272 23.728-53 53-53h53v106h-106v-53z" fill="#2c2c2f"/><path d="M370 10c66.275 0 120 53.725 120 120v120h-240v-240h120z" fill="#282830"/><path d="M303 144c29.272 0 53 23.728 53 53v53h-106v-106h53z" fill="#55adab"/><path d="M10 370c0 66.275 53.725 120 120 120h120v-240h-240v120z" fill="#fff"/><path visibility="hidden" d="M370 490c66.275 0 120-53.725 120-120v-120h-240v240h120z" fill="#e7e7e7"/><path d="M370 490c66.275 0 120-53.725 120-120v-120h-240v240h120z" fill="#c82647"/><path d="M144 303c0 29.272 23.728 53 53 53h53v-106h-106v53z" fill="#198d98"/><path d="M303 356c29.272 0 53-23.728 53-53v-53h-106v106h53z" fill="#1dabb8"/><path d="M180 197c0-9.389 7.611-17 17-17s17 7.611 17 17-7.611 17-17 17-17-7.611-17-17z" fill="#fff"/><path d="M286 197c0-9.389 7.611-17 17-17s17 7.611 17 17-7.611 17-17 17-17-7.611-17-17z" fill="#fff"/><path d="M185.5 250.5h130" stroke="#fff" stroke-width="10" fill="none"/></g></svg>